G04 #@! TF.GenerationSoftware,KiCad,Pcbnew,9.0.7*
G04 #@! TF.CreationDate,2026-02-20T12:41:18-05:00*
G04 #@! TF.ProjectId,Monitorio,4d6f6e69-746f-4726-996f-2e6b69636164,rev?*
G04 #@! TF.SameCoordinates,Original*
G04 #@! TF.FileFunction,Legend,Top*
G04 #@! TF.FilePolarity,Positive*
%FSLAX46Y46*%
G04 Gerber Fmt 4.6, Leading zero omitted, Abs format (unit mm)*
G04 Created by KiCad (PCBNEW 9.0.7) date 2026-02-20 12:41:18*
%MOMM*%
%LPD*%
G01*
G04 APERTURE LIST*
%ADD10C,0.200000*%
%ADD11C,0.150000*%
%ADD12C,0.152400*%
%ADD13C,0.120000*%
G04 APERTURE END LIST*
D10*
X110750000Y-95000000D02*
X120750000Y-95000000D01*
X120750000Y-105000000D01*
X110750000Y-105000000D01*
X110750000Y-95000000D01*
X79250000Y-95000000D02*
X89250000Y-95000000D01*
X89250000Y-105000000D01*
X79250000Y-105000000D01*
X79250000Y-95000000D01*
X89750000Y-95000000D02*
X99750000Y-95000000D01*
X99750000Y-105000000D01*
X89750000Y-105000000D01*
X89750000Y-95000000D01*
X100250000Y-95000000D02*
X110250000Y-95000000D01*
X110250000Y-105000000D01*
X100250000Y-105000000D01*
X100250000Y-95000000D01*
D11*
X107366666Y-75704819D02*
X107366666Y-76419104D01*
X107366666Y-76419104D02*
X107319047Y-76561961D01*
X107319047Y-76561961D02*
X107223809Y-76657200D01*
X107223809Y-76657200D02*
X107080952Y-76704819D01*
X107080952Y-76704819D02*
X106985714Y-76704819D01*
X107795238Y-75800057D02*
X107842857Y-75752438D01*
X107842857Y-75752438D02*
X107938095Y-75704819D01*
X107938095Y-75704819D02*
X108176190Y-75704819D01*
X108176190Y-75704819D02*
X108271428Y-75752438D01*
X108271428Y-75752438D02*
X108319047Y-75800057D01*
X108319047Y-75800057D02*
X108366666Y-75895295D01*
X108366666Y-75895295D02*
X108366666Y-75990533D01*
X108366666Y-75990533D02*
X108319047Y-76133390D01*
X108319047Y-76133390D02*
X107747619Y-76704819D01*
X107747619Y-76704819D02*
X108366666Y-76704819D01*
X94216642Y-73342016D02*
X94311880Y-73389635D01*
X94311880Y-73389635D02*
X94359499Y-73437254D01*
X94359499Y-73437254D02*
X94407118Y-73532492D01*
X94407118Y-73532492D02*
X94407118Y-73580111D01*
X94407118Y-73580111D02*
X94359499Y-73675349D01*
X94359499Y-73675349D02*
X94311880Y-73722968D01*
X94311880Y-73722968D02*
X94216642Y-73770587D01*
X94216642Y-73770587D02*
X94026166Y-73770587D01*
X94026166Y-73770587D02*
X93930928Y-73722968D01*
X93930928Y-73722968D02*
X93883309Y-73675349D01*
X93883309Y-73675349D02*
X93835690Y-73580111D01*
X93835690Y-73580111D02*
X93835690Y-73532492D01*
X93835690Y-73532492D02*
X93883309Y-73437254D01*
X93883309Y-73437254D02*
X93930928Y-73389635D01*
X93930928Y-73389635D02*
X94026166Y-73342016D01*
X94026166Y-73342016D02*
X94216642Y-73342016D01*
X94216642Y-73342016D02*
X94311880Y-73294397D01*
X94311880Y-73294397D02*
X94359499Y-73246778D01*
X94359499Y-73246778D02*
X94407118Y-73151540D01*
X94407118Y-73151540D02*
X94407118Y-72961064D01*
X94407118Y-72961064D02*
X94359499Y-72865826D01*
X94359499Y-72865826D02*
X94311880Y-72818207D01*
X94311880Y-72818207D02*
X94216642Y-72770587D01*
X94216642Y-72770587D02*
X94026166Y-72770587D01*
X94026166Y-72770587D02*
X93930928Y-72818207D01*
X93930928Y-72818207D02*
X93883309Y-72865826D01*
X93883309Y-72865826D02*
X93835690Y-72961064D01*
X93835690Y-72961064D02*
X93835690Y-73151540D01*
X93835690Y-73151540D02*
X93883309Y-73246778D01*
X93883309Y-73246778D02*
X93930928Y-73294397D01*
X93930928Y-73294397D02*
X94026166Y-73342016D01*
X105519689Y-70230587D02*
X106091117Y-70230587D01*
X105805403Y-70230587D02*
X105805403Y-71230587D01*
X105805403Y-71230587D02*
X105900641Y-71087730D01*
X105900641Y-71087730D02*
X105995879Y-70992492D01*
X105995879Y-70992492D02*
X106091117Y-70944873D01*
X94454736Y-71230587D02*
X93788070Y-71230587D01*
X93788070Y-71230587D02*
X94216641Y-70230587D01*
X106091117Y-73675349D02*
X106043498Y-73722968D01*
X106043498Y-73722968D02*
X105948260Y-73770587D01*
X105948260Y-73770587D02*
X105710165Y-73770587D01*
X105710165Y-73770587D02*
X105614927Y-73722968D01*
X105614927Y-73722968D02*
X105567308Y-73675349D01*
X105567308Y-73675349D02*
X105519689Y-73580111D01*
X105519689Y-73580111D02*
X105519689Y-73484873D01*
X105519689Y-73484873D02*
X105567308Y-73342016D01*
X105567308Y-73342016D02*
X106138736Y-72770587D01*
X106138736Y-72770587D02*
X105519689Y-72770587D01*
X96454819Y-78366666D02*
X95978628Y-78699999D01*
X96454819Y-78938094D02*
X95454819Y-78938094D01*
X95454819Y-78938094D02*
X95454819Y-78557142D01*
X95454819Y-78557142D02*
X95502438Y-78461904D01*
X95502438Y-78461904D02*
X95550057Y-78414285D01*
X95550057Y-78414285D02*
X95645295Y-78366666D01*
X95645295Y-78366666D02*
X95788152Y-78366666D01*
X95788152Y-78366666D02*
X95883390Y-78414285D01*
X95883390Y-78414285D02*
X95931009Y-78461904D01*
X95931009Y-78461904D02*
X95978628Y-78557142D01*
X95978628Y-78557142D02*
X95978628Y-78938094D01*
X95883390Y-77795237D02*
X95835771Y-77890475D01*
X95835771Y-77890475D02*
X95788152Y-77938094D01*
X95788152Y-77938094D02*
X95692914Y-77985713D01*
X95692914Y-77985713D02*
X95645295Y-77985713D01*
X95645295Y-77985713D02*
X95550057Y-77938094D01*
X95550057Y-77938094D02*
X95502438Y-77890475D01*
X95502438Y-77890475D02*
X95454819Y-77795237D01*
X95454819Y-77795237D02*
X95454819Y-77604761D01*
X95454819Y-77604761D02*
X95502438Y-77509523D01*
X95502438Y-77509523D02*
X95550057Y-77461904D01*
X95550057Y-77461904D02*
X95645295Y-77414285D01*
X95645295Y-77414285D02*
X95692914Y-77414285D01*
X95692914Y-77414285D02*
X95788152Y-77461904D01*
X95788152Y-77461904D02*
X95835771Y-77509523D01*
X95835771Y-77509523D02*
X95883390Y-77604761D01*
X95883390Y-77604761D02*
X95883390Y-77795237D01*
X95883390Y-77795237D02*
X95931009Y-77890475D01*
X95931009Y-77890475D02*
X95978628Y-77938094D01*
X95978628Y-77938094D02*
X96073866Y-77985713D01*
X96073866Y-77985713D02*
X96264342Y-77985713D01*
X96264342Y-77985713D02*
X96359580Y-77938094D01*
X96359580Y-77938094D02*
X96407200Y-77890475D01*
X96407200Y-77890475D02*
X96454819Y-77795237D01*
X96454819Y-77795237D02*
X96454819Y-77604761D01*
X96454819Y-77604761D02*
X96407200Y-77509523D01*
X96407200Y-77509523D02*
X96359580Y-77461904D01*
X96359580Y-77461904D02*
X96264342Y-77414285D01*
X96264342Y-77414285D02*
X96073866Y-77414285D01*
X96073866Y-77414285D02*
X95978628Y-77461904D01*
X95978628Y-77461904D02*
X95931009Y-77509523D01*
X95931009Y-77509523D02*
X95883390Y-77604761D01*
X103896751Y-90166666D02*
X103944371Y-90214285D01*
X103944371Y-90214285D02*
X103991990Y-90357142D01*
X103991990Y-90357142D02*
X103991990Y-90452380D01*
X103991990Y-90452380D02*
X103944371Y-90595237D01*
X103944371Y-90595237D02*
X103849132Y-90690475D01*
X103849132Y-90690475D02*
X103753894Y-90738094D01*
X103753894Y-90738094D02*
X103563418Y-90785713D01*
X103563418Y-90785713D02*
X103420561Y-90785713D01*
X103420561Y-90785713D02*
X103230085Y-90738094D01*
X103230085Y-90738094D02*
X103134847Y-90690475D01*
X103134847Y-90690475D02*
X103039609Y-90595237D01*
X103039609Y-90595237D02*
X102991990Y-90452380D01*
X102991990Y-90452380D02*
X102991990Y-90357142D01*
X102991990Y-90357142D02*
X103039609Y-90214285D01*
X103039609Y-90214285D02*
X103087228Y-90166666D01*
X102991990Y-89833332D02*
X102991990Y-89214285D01*
X102991990Y-89214285D02*
X103372942Y-89547618D01*
X103372942Y-89547618D02*
X103372942Y-89404761D01*
X103372942Y-89404761D02*
X103420561Y-89309523D01*
X103420561Y-89309523D02*
X103468180Y-89261904D01*
X103468180Y-89261904D02*
X103563418Y-89214285D01*
X103563418Y-89214285D02*
X103801513Y-89214285D01*
X103801513Y-89214285D02*
X103896751Y-89261904D01*
X103896751Y-89261904D02*
X103944371Y-89309523D01*
X103944371Y-89309523D02*
X103991990Y-89404761D01*
X103991990Y-89404761D02*
X103991990Y-89690475D01*
X103991990Y-89690475D02*
X103944371Y-89785713D01*
X103944371Y-89785713D02*
X103896751Y-89833332D01*
X104238095Y-82704819D02*
X104238095Y-83514342D01*
X104238095Y-83514342D02*
X104285714Y-83609580D01*
X104285714Y-83609580D02*
X104333333Y-83657200D01*
X104333333Y-83657200D02*
X104428571Y-83704819D01*
X104428571Y-83704819D02*
X104619047Y-83704819D01*
X104619047Y-83704819D02*
X104714285Y-83657200D01*
X104714285Y-83657200D02*
X104761904Y-83609580D01*
X104761904Y-83609580D02*
X104809523Y-83514342D01*
X104809523Y-83514342D02*
X104809523Y-82704819D01*
X105809523Y-83704819D02*
X105238095Y-83704819D01*
X105523809Y-83704819D02*
X105523809Y-82704819D01*
X105523809Y-82704819D02*
X105428571Y-82847676D01*
X105428571Y-82847676D02*
X105333333Y-82942914D01*
X105333333Y-82942914D02*
X105238095Y-82990533D01*
X100204819Y-78341666D02*
X99728628Y-78674999D01*
X100204819Y-78913094D02*
X99204819Y-78913094D01*
X99204819Y-78913094D02*
X99204819Y-78532142D01*
X99204819Y-78532142D02*
X99252438Y-78436904D01*
X99252438Y-78436904D02*
X99300057Y-78389285D01*
X99300057Y-78389285D02*
X99395295Y-78341666D01*
X99395295Y-78341666D02*
X99538152Y-78341666D01*
X99538152Y-78341666D02*
X99633390Y-78389285D01*
X99633390Y-78389285D02*
X99681009Y-78436904D01*
X99681009Y-78436904D02*
X99728628Y-78532142D01*
X99728628Y-78532142D02*
X99728628Y-78913094D01*
X99204819Y-77436904D02*
X99204819Y-77913094D01*
X99204819Y-77913094D02*
X99681009Y-77960713D01*
X99681009Y-77960713D02*
X99633390Y-77913094D01*
X99633390Y-77913094D02*
X99585771Y-77817856D01*
X99585771Y-77817856D02*
X99585771Y-77579761D01*
X99585771Y-77579761D02*
X99633390Y-77484523D01*
X99633390Y-77484523D02*
X99681009Y-77436904D01*
X99681009Y-77436904D02*
X99776247Y-77389285D01*
X99776247Y-77389285D02*
X100014342Y-77389285D01*
X100014342Y-77389285D02*
X100109580Y-77436904D01*
X100109580Y-77436904D02*
X100157200Y-77484523D01*
X100157200Y-77484523D02*
X100204819Y-77579761D01*
X100204819Y-77579761D02*
X100204819Y-77817856D01*
X100204819Y-77817856D02*
X100157200Y-77913094D01*
X100157200Y-77913094D02*
X100109580Y-77960713D01*
X83859580Y-90416666D02*
X83907200Y-90464285D01*
X83907200Y-90464285D02*
X83954819Y-90607142D01*
X83954819Y-90607142D02*
X83954819Y-90702380D01*
X83954819Y-90702380D02*
X83907200Y-90845237D01*
X83907200Y-90845237D02*
X83811961Y-90940475D01*
X83811961Y-90940475D02*
X83716723Y-90988094D01*
X83716723Y-90988094D02*
X83526247Y-91035713D01*
X83526247Y-91035713D02*
X83383390Y-91035713D01*
X83383390Y-91035713D02*
X83192914Y-90988094D01*
X83192914Y-90988094D02*
X83097676Y-90940475D01*
X83097676Y-90940475D02*
X83002438Y-90845237D01*
X83002438Y-90845237D02*
X82954819Y-90702380D01*
X82954819Y-90702380D02*
X82954819Y-90607142D01*
X82954819Y-90607142D02*
X83002438Y-90464285D01*
X83002438Y-90464285D02*
X83050057Y-90416666D01*
X83954819Y-89464285D02*
X83954819Y-90035713D01*
X83954819Y-89749999D02*
X82954819Y-89749999D01*
X82954819Y-89749999D02*
X83097676Y-89845237D01*
X83097676Y-89845237D02*
X83192914Y-89940475D01*
X83192914Y-89940475D02*
X83240533Y-90035713D01*
X94654819Y-78366666D02*
X94178628Y-78699999D01*
X94654819Y-78938094D02*
X93654819Y-78938094D01*
X93654819Y-78938094D02*
X93654819Y-78557142D01*
X93654819Y-78557142D02*
X93702438Y-78461904D01*
X93702438Y-78461904D02*
X93750057Y-78414285D01*
X93750057Y-78414285D02*
X93845295Y-78366666D01*
X93845295Y-78366666D02*
X93988152Y-78366666D01*
X93988152Y-78366666D02*
X94083390Y-78414285D01*
X94083390Y-78414285D02*
X94131009Y-78461904D01*
X94131009Y-78461904D02*
X94178628Y-78557142D01*
X94178628Y-78557142D02*
X94178628Y-78938094D01*
X93654819Y-78033332D02*
X93654819Y-77366666D01*
X93654819Y-77366666D02*
X94654819Y-77795237D01*
X116204819Y-90416666D02*
X115728628Y-90749999D01*
X116204819Y-90988094D02*
X115204819Y-90988094D01*
X115204819Y-90988094D02*
X115204819Y-90607142D01*
X115204819Y-90607142D02*
X115252438Y-90511904D01*
X115252438Y-90511904D02*
X115300057Y-90464285D01*
X115300057Y-90464285D02*
X115395295Y-90416666D01*
X115395295Y-90416666D02*
X115538152Y-90416666D01*
X115538152Y-90416666D02*
X115633390Y-90464285D01*
X115633390Y-90464285D02*
X115681009Y-90511904D01*
X115681009Y-90511904D02*
X115728628Y-90607142D01*
X115728628Y-90607142D02*
X115728628Y-90988094D01*
X115538152Y-89559523D02*
X116204819Y-89559523D01*
X115157200Y-89797618D02*
X115871485Y-90035713D01*
X115871485Y-90035713D02*
X115871485Y-89416666D01*
X114359580Y-90416666D02*
X114407200Y-90464285D01*
X114407200Y-90464285D02*
X114454819Y-90607142D01*
X114454819Y-90607142D02*
X114454819Y-90702380D01*
X114454819Y-90702380D02*
X114407200Y-90845237D01*
X114407200Y-90845237D02*
X114311961Y-90940475D01*
X114311961Y-90940475D02*
X114216723Y-90988094D01*
X114216723Y-90988094D02*
X114026247Y-91035713D01*
X114026247Y-91035713D02*
X113883390Y-91035713D01*
X113883390Y-91035713D02*
X113692914Y-90988094D01*
X113692914Y-90988094D02*
X113597676Y-90940475D01*
X113597676Y-90940475D02*
X113502438Y-90845237D01*
X113502438Y-90845237D02*
X113454819Y-90702380D01*
X113454819Y-90702380D02*
X113454819Y-90607142D01*
X113454819Y-90607142D02*
X113502438Y-90464285D01*
X113502438Y-90464285D02*
X113550057Y-90416666D01*
X113788152Y-89559523D02*
X114454819Y-89559523D01*
X113407200Y-89797618D02*
X114121485Y-90035713D01*
X114121485Y-90035713D02*
X114121485Y-89416666D01*
X98109580Y-78341666D02*
X98157200Y-78389285D01*
X98157200Y-78389285D02*
X98204819Y-78532142D01*
X98204819Y-78532142D02*
X98204819Y-78627380D01*
X98204819Y-78627380D02*
X98157200Y-78770237D01*
X98157200Y-78770237D02*
X98061961Y-78865475D01*
X98061961Y-78865475D02*
X97966723Y-78913094D01*
X97966723Y-78913094D02*
X97776247Y-78960713D01*
X97776247Y-78960713D02*
X97633390Y-78960713D01*
X97633390Y-78960713D02*
X97442914Y-78913094D01*
X97442914Y-78913094D02*
X97347676Y-78865475D01*
X97347676Y-78865475D02*
X97252438Y-78770237D01*
X97252438Y-78770237D02*
X97204819Y-78627380D01*
X97204819Y-78627380D02*
X97204819Y-78532142D01*
X97204819Y-78532142D02*
X97252438Y-78389285D01*
X97252438Y-78389285D02*
X97300057Y-78341666D01*
X97204819Y-77436904D02*
X97204819Y-77913094D01*
X97204819Y-77913094D02*
X97681009Y-77960713D01*
X97681009Y-77960713D02*
X97633390Y-77913094D01*
X97633390Y-77913094D02*
X97585771Y-77817856D01*
X97585771Y-77817856D02*
X97585771Y-77579761D01*
X97585771Y-77579761D02*
X97633390Y-77484523D01*
X97633390Y-77484523D02*
X97681009Y-77436904D01*
X97681009Y-77436904D02*
X97776247Y-77389285D01*
X97776247Y-77389285D02*
X98014342Y-77389285D01*
X98014342Y-77389285D02*
X98109580Y-77436904D01*
X98109580Y-77436904D02*
X98157200Y-77484523D01*
X98157200Y-77484523D02*
X98204819Y-77579761D01*
X98204819Y-77579761D02*
X98204819Y-77817856D01*
X98204819Y-77817856D02*
X98157200Y-77913094D01*
X98157200Y-77913094D02*
X98109580Y-77960713D01*
X93359580Y-90416666D02*
X93407200Y-90464285D01*
X93407200Y-90464285D02*
X93454819Y-90607142D01*
X93454819Y-90607142D02*
X93454819Y-90702380D01*
X93454819Y-90702380D02*
X93407200Y-90845237D01*
X93407200Y-90845237D02*
X93311961Y-90940475D01*
X93311961Y-90940475D02*
X93216723Y-90988094D01*
X93216723Y-90988094D02*
X93026247Y-91035713D01*
X93026247Y-91035713D02*
X92883390Y-91035713D01*
X92883390Y-91035713D02*
X92692914Y-90988094D01*
X92692914Y-90988094D02*
X92597676Y-90940475D01*
X92597676Y-90940475D02*
X92502438Y-90845237D01*
X92502438Y-90845237D02*
X92454819Y-90702380D01*
X92454819Y-90702380D02*
X92454819Y-90607142D01*
X92454819Y-90607142D02*
X92502438Y-90464285D01*
X92502438Y-90464285D02*
X92550057Y-90416666D01*
X92550057Y-90035713D02*
X92502438Y-89988094D01*
X92502438Y-89988094D02*
X92454819Y-89892856D01*
X92454819Y-89892856D02*
X92454819Y-89654761D01*
X92454819Y-89654761D02*
X92502438Y-89559523D01*
X92502438Y-89559523D02*
X92550057Y-89511904D01*
X92550057Y-89511904D02*
X92645295Y-89464285D01*
X92645295Y-89464285D02*
X92740533Y-89464285D01*
X92740533Y-89464285D02*
X92883390Y-89511904D01*
X92883390Y-89511904D02*
X93454819Y-90083332D01*
X93454819Y-90083332D02*
X93454819Y-89464285D01*
X105704819Y-90166666D02*
X105228628Y-90499999D01*
X105704819Y-90738094D02*
X104704819Y-90738094D01*
X104704819Y-90738094D02*
X104704819Y-90357142D01*
X104704819Y-90357142D02*
X104752438Y-90261904D01*
X104752438Y-90261904D02*
X104800057Y-90214285D01*
X104800057Y-90214285D02*
X104895295Y-90166666D01*
X104895295Y-90166666D02*
X105038152Y-90166666D01*
X105038152Y-90166666D02*
X105133390Y-90214285D01*
X105133390Y-90214285D02*
X105181009Y-90261904D01*
X105181009Y-90261904D02*
X105228628Y-90357142D01*
X105228628Y-90357142D02*
X105228628Y-90738094D01*
X104704819Y-89833332D02*
X104704819Y-89214285D01*
X104704819Y-89214285D02*
X105085771Y-89547618D01*
X105085771Y-89547618D02*
X105085771Y-89404761D01*
X105085771Y-89404761D02*
X105133390Y-89309523D01*
X105133390Y-89309523D02*
X105181009Y-89261904D01*
X105181009Y-89261904D02*
X105276247Y-89214285D01*
X105276247Y-89214285D02*
X105514342Y-89214285D01*
X105514342Y-89214285D02*
X105609580Y-89261904D01*
X105609580Y-89261904D02*
X105657200Y-89309523D01*
X105657200Y-89309523D02*
X105704819Y-89404761D01*
X105704819Y-89404761D02*
X105704819Y-89690475D01*
X105704819Y-89690475D02*
X105657200Y-89785713D01*
X105657200Y-89785713D02*
X105609580Y-89833332D01*
X95204819Y-90416666D02*
X94728628Y-90749999D01*
X95204819Y-90988094D02*
X94204819Y-90988094D01*
X94204819Y-90988094D02*
X94204819Y-90607142D01*
X94204819Y-90607142D02*
X94252438Y-90511904D01*
X94252438Y-90511904D02*
X94300057Y-90464285D01*
X94300057Y-90464285D02*
X94395295Y-90416666D01*
X94395295Y-90416666D02*
X94538152Y-90416666D01*
X94538152Y-90416666D02*
X94633390Y-90464285D01*
X94633390Y-90464285D02*
X94681009Y-90511904D01*
X94681009Y-90511904D02*
X94728628Y-90607142D01*
X94728628Y-90607142D02*
X94728628Y-90988094D01*
X94300057Y-90035713D02*
X94252438Y-89988094D01*
X94252438Y-89988094D02*
X94204819Y-89892856D01*
X94204819Y-89892856D02*
X94204819Y-89654761D01*
X94204819Y-89654761D02*
X94252438Y-89559523D01*
X94252438Y-89559523D02*
X94300057Y-89511904D01*
X94300057Y-89511904D02*
X94395295Y-89464285D01*
X94395295Y-89464285D02*
X94490533Y-89464285D01*
X94490533Y-89464285D02*
X94633390Y-89511904D01*
X94633390Y-89511904D02*
X95204819Y-90083332D01*
X95204819Y-90083332D02*
X95204819Y-89464285D01*
X105654819Y-78342857D02*
X105178628Y-78676190D01*
X105654819Y-78914285D02*
X104654819Y-78914285D01*
X104654819Y-78914285D02*
X104654819Y-78533333D01*
X104654819Y-78533333D02*
X104702438Y-78438095D01*
X104702438Y-78438095D02*
X104750057Y-78390476D01*
X104750057Y-78390476D02*
X104845295Y-78342857D01*
X104845295Y-78342857D02*
X104988152Y-78342857D01*
X104988152Y-78342857D02*
X105083390Y-78390476D01*
X105083390Y-78390476D02*
X105131009Y-78438095D01*
X105131009Y-78438095D02*
X105178628Y-78533333D01*
X105178628Y-78533333D02*
X105178628Y-78914285D01*
X105654819Y-77390476D02*
X105654819Y-77961904D01*
X105654819Y-77676190D02*
X104654819Y-77676190D01*
X104654819Y-77676190D02*
X104797676Y-77771428D01*
X104797676Y-77771428D02*
X104892914Y-77866666D01*
X104892914Y-77866666D02*
X104940533Y-77961904D01*
X104654819Y-76771428D02*
X104654819Y-76676190D01*
X104654819Y-76676190D02*
X104702438Y-76580952D01*
X104702438Y-76580952D02*
X104750057Y-76533333D01*
X104750057Y-76533333D02*
X104845295Y-76485714D01*
X104845295Y-76485714D02*
X105035771Y-76438095D01*
X105035771Y-76438095D02*
X105273866Y-76438095D01*
X105273866Y-76438095D02*
X105464342Y-76485714D01*
X105464342Y-76485714D02*
X105559580Y-76533333D01*
X105559580Y-76533333D02*
X105607200Y-76580952D01*
X105607200Y-76580952D02*
X105654819Y-76676190D01*
X105654819Y-76676190D02*
X105654819Y-76771428D01*
X105654819Y-76771428D02*
X105607200Y-76866666D01*
X105607200Y-76866666D02*
X105559580Y-76914285D01*
X105559580Y-76914285D02*
X105464342Y-76961904D01*
X105464342Y-76961904D02*
X105273866Y-77009523D01*
X105273866Y-77009523D02*
X105035771Y-77009523D01*
X105035771Y-77009523D02*
X104845295Y-76961904D01*
X104845295Y-76961904D02*
X104750057Y-76914285D01*
X104750057Y-76914285D02*
X104702438Y-76866666D01*
X104702438Y-76866666D02*
X104654819Y-76771428D01*
X103954819Y-78116666D02*
X103478628Y-78449999D01*
X103954819Y-78688094D02*
X102954819Y-78688094D01*
X102954819Y-78688094D02*
X102954819Y-78307142D01*
X102954819Y-78307142D02*
X103002438Y-78211904D01*
X103002438Y-78211904D02*
X103050057Y-78164285D01*
X103050057Y-78164285D02*
X103145295Y-78116666D01*
X103145295Y-78116666D02*
X103288152Y-78116666D01*
X103288152Y-78116666D02*
X103383390Y-78164285D01*
X103383390Y-78164285D02*
X103431009Y-78211904D01*
X103431009Y-78211904D02*
X103478628Y-78307142D01*
X103478628Y-78307142D02*
X103478628Y-78688094D01*
X103954819Y-77640475D02*
X103954819Y-77449999D01*
X103954819Y-77449999D02*
X103907200Y-77354761D01*
X103907200Y-77354761D02*
X103859580Y-77307142D01*
X103859580Y-77307142D02*
X103716723Y-77211904D01*
X103716723Y-77211904D02*
X103526247Y-77164285D01*
X103526247Y-77164285D02*
X103145295Y-77164285D01*
X103145295Y-77164285D02*
X103050057Y-77211904D01*
X103050057Y-77211904D02*
X103002438Y-77259523D01*
X103002438Y-77259523D02*
X102954819Y-77354761D01*
X102954819Y-77354761D02*
X102954819Y-77545237D01*
X102954819Y-77545237D02*
X103002438Y-77640475D01*
X103002438Y-77640475D02*
X103050057Y-77688094D01*
X103050057Y-77688094D02*
X103145295Y-77735713D01*
X103145295Y-77735713D02*
X103383390Y-77735713D01*
X103383390Y-77735713D02*
X103478628Y-77688094D01*
X103478628Y-77688094D02*
X103526247Y-77640475D01*
X103526247Y-77640475D02*
X103573866Y-77545237D01*
X103573866Y-77545237D02*
X103573866Y-77354761D01*
X103573866Y-77354761D02*
X103526247Y-77259523D01*
X103526247Y-77259523D02*
X103478628Y-77211904D01*
X103478628Y-77211904D02*
X103383390Y-77164285D01*
X102204819Y-78341666D02*
X101728628Y-78674999D01*
X102204819Y-78913094D02*
X101204819Y-78913094D01*
X101204819Y-78913094D02*
X101204819Y-78532142D01*
X101204819Y-78532142D02*
X101252438Y-78436904D01*
X101252438Y-78436904D02*
X101300057Y-78389285D01*
X101300057Y-78389285D02*
X101395295Y-78341666D01*
X101395295Y-78341666D02*
X101538152Y-78341666D01*
X101538152Y-78341666D02*
X101633390Y-78389285D01*
X101633390Y-78389285D02*
X101681009Y-78436904D01*
X101681009Y-78436904D02*
X101728628Y-78532142D01*
X101728628Y-78532142D02*
X101728628Y-78913094D01*
X101204819Y-77484523D02*
X101204819Y-77674999D01*
X101204819Y-77674999D02*
X101252438Y-77770237D01*
X101252438Y-77770237D02*
X101300057Y-77817856D01*
X101300057Y-77817856D02*
X101442914Y-77913094D01*
X101442914Y-77913094D02*
X101633390Y-77960713D01*
X101633390Y-77960713D02*
X102014342Y-77960713D01*
X102014342Y-77960713D02*
X102109580Y-77913094D01*
X102109580Y-77913094D02*
X102157200Y-77865475D01*
X102157200Y-77865475D02*
X102204819Y-77770237D01*
X102204819Y-77770237D02*
X102204819Y-77579761D01*
X102204819Y-77579761D02*
X102157200Y-77484523D01*
X102157200Y-77484523D02*
X102109580Y-77436904D01*
X102109580Y-77436904D02*
X102014342Y-77389285D01*
X102014342Y-77389285D02*
X101776247Y-77389285D01*
X101776247Y-77389285D02*
X101681009Y-77436904D01*
X101681009Y-77436904D02*
X101633390Y-77484523D01*
X101633390Y-77484523D02*
X101585771Y-77579761D01*
X101585771Y-77579761D02*
X101585771Y-77770237D01*
X101585771Y-77770237D02*
X101633390Y-77865475D01*
X101633390Y-77865475D02*
X101681009Y-77913094D01*
X101681009Y-77913094D02*
X101776247Y-77960713D01*
X85704819Y-90416666D02*
X85228628Y-90749999D01*
X85704819Y-90988094D02*
X84704819Y-90988094D01*
X84704819Y-90988094D02*
X84704819Y-90607142D01*
X84704819Y-90607142D02*
X84752438Y-90511904D01*
X84752438Y-90511904D02*
X84800057Y-90464285D01*
X84800057Y-90464285D02*
X84895295Y-90416666D01*
X84895295Y-90416666D02*
X85038152Y-90416666D01*
X85038152Y-90416666D02*
X85133390Y-90464285D01*
X85133390Y-90464285D02*
X85181009Y-90511904D01*
X85181009Y-90511904D02*
X85228628Y-90607142D01*
X85228628Y-90607142D02*
X85228628Y-90988094D01*
X85704819Y-89464285D02*
X85704819Y-90035713D01*
X85704819Y-89749999D02*
X84704819Y-89749999D01*
X84704819Y-89749999D02*
X84847676Y-89845237D01*
X84847676Y-89845237D02*
X84942914Y-89940475D01*
X84942914Y-89940475D02*
X84990533Y-90035713D01*
D12*
G04 #@! TO.C,J2*
X91708404Y-53413407D02*
X91708404Y-66092957D01*
X91708404Y-68673857D02*
X91708404Y-75257407D01*
X91708404Y-75257407D02*
X108218404Y-75257407D01*
X108218404Y-53413407D02*
X91708404Y-53413407D01*
X108218404Y-66092957D02*
X108218404Y-53413407D01*
X108218404Y-75257407D02*
X108218404Y-68673857D01*
D13*
G04 #@! TO.C,R8*
X96522500Y-80937258D02*
X96522500Y-80462742D01*
X95477500Y-80937258D02*
X95477500Y-80462742D01*
G04 #@! TO.C,C3*
X104010000Y-92890580D02*
X104010000Y-92609420D01*
X102990000Y-92890580D02*
X102990000Y-92609420D01*
G04 #@! TO.C,U1*
X97000000Y-83100000D02*
X96760000Y-82770000D01*
X97240000Y-82770000D01*
X97000000Y-83100000D01*
G36*
X97000000Y-83100000D02*
G01*
X96760000Y-82770000D01*
X97240000Y-82770000D01*
X97000000Y-83100000D01*
G37*
D11*
X102125000Y-88175000D02*
X102125000Y-88000000D01*
X102125000Y-82925000D02*
X102125000Y-83100000D01*
X97475000Y-88175000D02*
X102125000Y-88175000D01*
X97475000Y-88175000D02*
X97475000Y-88000000D01*
X97475000Y-82925000D02*
X102125000Y-82925000D01*
X97475000Y-82925000D02*
X97475000Y-83100000D01*
D13*
G04 #@! TO.C,R5*
X102272500Y-80912258D02*
X102272500Y-80437742D01*
X101227500Y-80912258D02*
X101227500Y-80437742D01*
G04 #@! TO.C,C1*
X84010000Y-92890580D02*
X84010000Y-92609420D01*
X82990000Y-92890580D02*
X82990000Y-92609420D01*
G04 #@! TO.C,R7*
X94722500Y-80937258D02*
X94722500Y-80462742D01*
X93677500Y-80937258D02*
X93677500Y-80462742D01*
G04 #@! TO.C,R4*
X116272500Y-92512742D02*
X116272500Y-92987258D01*
X115227500Y-92512742D02*
X115227500Y-92987258D01*
G04 #@! TO.C,C4*
X114510000Y-92865580D02*
X114510000Y-92584420D01*
X113490000Y-92865580D02*
X113490000Y-92584420D01*
G04 #@! TO.C,C5*
X98260000Y-80815580D02*
X98260000Y-80534420D01*
X97240000Y-80815580D02*
X97240000Y-80534420D01*
G04 #@! TO.C,C2*
X93510000Y-92890580D02*
X93510000Y-92609420D01*
X92490000Y-92890580D02*
X92490000Y-92609420D01*
G04 #@! TO.C,R3*
X105772500Y-92512742D02*
X105772500Y-92987258D01*
X104727500Y-92512742D02*
X104727500Y-92987258D01*
G04 #@! TO.C,R2*
X95272500Y-92512742D02*
X95272500Y-92987258D01*
X94227500Y-92512742D02*
X94227500Y-92987258D01*
G04 #@! TO.C,R10*
X105722500Y-80937258D02*
X105722500Y-80462742D01*
X104677500Y-80937258D02*
X104677500Y-80462742D01*
G04 #@! TO.C,R9*
X104022500Y-80937258D02*
X104022500Y-80462742D01*
X102977500Y-80937258D02*
X102977500Y-80462742D01*
G04 #@! TO.C,R6*
X100272500Y-80437742D02*
X100272500Y-80912258D01*
X99227500Y-80437742D02*
X99227500Y-80912258D01*
G04 #@! TO.C,R1*
X85772500Y-92512742D02*
X85772500Y-92987258D01*
X84727500Y-92512742D02*
X84727500Y-92987258D01*
G04 #@! TD*
M02*
