G04 #@! TF.GenerationSoftware,KiCad,Pcbnew,9.0.7*
G04 #@! TF.CreationDate,2026-02-20T12:41:18-05:00*
G04 #@! TF.ProjectId,Monitorio,4d6f6e69-746f-4726-996f-2e6b69636164,rev?*
G04 #@! TF.SameCoordinates,Original*
G04 #@! TF.FileFunction,Copper,L2,Bot*
G04 #@! TF.FilePolarity,Positive*
%FSLAX46Y46*%
G04 Gerber Fmt 4.6, Leading zero omitted, Abs format (unit mm)*
G04 Created by KiCad (PCBNEW 9.0.7) date 2026-02-20 12:41:18*
%MOMM*%
%LPD*%
G01*
G04 APERTURE LIST*
G04 Aperture macros list*
%AMRoundRect*
0 Rectangle with rounded corners*
0 $1 Rounding radius*
0 $2 $3 $4 $5 $6 $7 $8 $9 X,Y pos of 4 corners*
0 Add a 4 corners polygon primitive as box body*
4,1,4,$2,$3,$4,$5,$6,$7,$8,$9,$2,$3,0*
0 Add four circle primitives for the rounded corners*
1,1,$1+$1,$2,$3*
1,1,$1+$1,$4,$5*
1,1,$1+$1,$6,$7*
1,1,$1+$1,$8,$9*
0 Add four rect primitives between the rounded corners*
20,1,$1+$1,$2,$3,$4,$5,0*
20,1,$1+$1,$4,$5,$6,$7,0*
20,1,$1+$1,$6,$7,$8,$9,0*
20,1,$1+$1,$8,$9,$2,$3,0*%
G04 Aperture macros list end*
G04 #@! TA.AperFunction,ComponentPad*
%ADD10C,2.108200*%
G04 #@! TD*
G04 #@! TA.AperFunction,ComponentPad*
%ADD11C,1.397000*%
G04 #@! TD*
G04 #@! TA.AperFunction,SMDPad,CuDef*
%ADD12RoundRect,0.250000X-0.625000X0.375000X-0.625000X-0.375000X0.625000X-0.375000X0.625000X0.375000X0*%
G04 #@! TD*
G04 #@! TA.AperFunction,ViaPad*
%ADD13C,0.700000*%
G04 #@! TD*
G04 #@! TA.AperFunction,Conductor*
%ADD14C,0.300000*%
G04 #@! TD*
G04 #@! TA.AperFunction,Conductor*
%ADD15C,0.200000*%
G04 #@! TD*
G04 APERTURE END LIST*
D10*
G04 #@! TO.P,J2,10,10*
G04 #@! TO.N,GND*
X107710404Y-67383407D03*
G04 #@! TO.P,J2,9,9*
X92216404Y-67383407D03*
D11*
G04 #@! TO.P,J2,8,8*
X95518404Y-73225407D03*
G04 #@! TO.P,J2,7,7*
G04 #@! TO.N,Net-(J2-Pad7)*
X96788404Y-70685407D03*
G04 #@! TO.P,J2,6,6*
G04 #@! TO.N,GND*
X98058404Y-73225407D03*
G04 #@! TO.P,J2,5,5*
G04 #@! TO.N,+5V*
X99328404Y-70685407D03*
G04 #@! TO.P,J2,4,4*
G04 #@! TO.N,Net-(J2-Pad4)*
X100598404Y-73225407D03*
G04 #@! TO.P,J2,3,3*
G04 #@! TO.N,Net-(J2-Pad3)*
X101868404Y-70685407D03*
G04 #@! TO.P,J2,2,2*
G04 #@! TO.N,+5V*
X103138404Y-73225407D03*
G04 #@! TO.P,J2,1,1*
G04 #@! TO.N,Net-(J2-Pad1)*
X104408404Y-70685407D03*
G04 #@! TD*
D12*
G04 #@! TO.P,D1,2,A*
G04 #@! TO.N,GND*
X84250000Y-101400000D03*
G04 #@! TO.P,D1,1,K*
G04 #@! TO.N,Net-(D1-K)*
X84250000Y-98600000D03*
G04 #@! TD*
G04 #@! TO.P,D4,2,A*
G04 #@! TO.N,GND*
X115750000Y-101400000D03*
G04 #@! TO.P,D4,1,K*
G04 #@! TO.N,Net-(D4-K)*
X115750000Y-98600000D03*
G04 #@! TD*
G04 #@! TO.P,D3,2,A*
G04 #@! TO.N,GND*
X105250000Y-101400000D03*
G04 #@! TO.P,D3,1,K*
G04 #@! TO.N,Net-(D3-K)*
X105250000Y-98600000D03*
G04 #@! TD*
G04 #@! TO.P,D2,2,A*
G04 #@! TO.N,GND*
X94750000Y-101400000D03*
G04 #@! TO.P,D2,1,K*
G04 #@! TO.N,Net-(D2-K)*
X94750000Y-98600000D03*
G04 #@! TD*
D13*
G04 #@! TO.N,GND*
X109700000Y-82850000D03*
X104050000Y-85600000D03*
X106750000Y-93800000D03*
X103250000Y-89500000D03*
X106650000Y-84600000D03*
G04 #@! TO.N,Net-(C3-Pad1)*
X106255485Y-83225761D03*
X107350000Y-80800000D03*
G04 #@! TO.N,Net-(C2-Pad1)*
X96750000Y-89300000D03*
X91000000Y-82150000D03*
G04 #@! TO.N,GND*
X101900000Y-75850000D03*
X97950000Y-77150000D03*
X110500000Y-97800000D03*
X100000000Y-97650000D03*
X103250000Y-64200000D03*
X96650000Y-64150000D03*
X100900000Y-67450000D03*
X94900000Y-71100000D03*
X92700000Y-79600000D03*
X106200000Y-72150000D03*
X106750000Y-79650000D03*
X114450000Y-85350000D03*
X85300000Y-85250000D03*
G04 #@! TO.N,Net-(D3-K)*
X105300000Y-94850000D03*
G04 #@! TO.N,GND*
X79750000Y-104450000D03*
X93050000Y-83400000D03*
G04 #@! TO.N,Net-(D1-K)*
X84245695Y-94499973D03*
G04 #@! TO.N,Net-(D2-K)*
X92200000Y-94350000D03*
G04 #@! TO.N,GND*
X100126282Y-104047390D03*
X97900000Y-88800000D03*
X91708404Y-75384407D03*
X89100000Y-94200000D03*
X101400000Y-94500000D03*
G04 #@! TO.N,Net-(D4-K)*
X115750000Y-94850000D03*
G04 #@! TO.N,GND*
X89526282Y-104047390D03*
X113400000Y-80050000D03*
X120250000Y-104500000D03*
X95100000Y-84900000D03*
X101095812Y-90930307D03*
X89950000Y-86450000D03*
X108120000Y-60700000D03*
X80091347Y-94389451D03*
X98700000Y-80500000D03*
X99800000Y-82925000D03*
X92900000Y-90500000D03*
X91610000Y-60700000D03*
X108400000Y-53900000D03*
X110526282Y-104147390D03*
X91350000Y-53900000D03*
X86200000Y-90200000D03*
X99864999Y-53900000D03*
X100800000Y-86500000D03*
X100100000Y-60200000D03*
X119865933Y-95142060D03*
X96600000Y-94500000D03*
X86650000Y-81700000D03*
X89500000Y-97600000D03*
X80200000Y-89400000D03*
X119800000Y-89300000D03*
X81000000Y-55150000D03*
X116100000Y-61900000D03*
X120200000Y-82800000D03*
X83800000Y-62000000D03*
X79750000Y-81600000D03*
X118800000Y-55000000D03*
X118900000Y-71600000D03*
X79700000Y-71200000D03*
X113300000Y-71600000D03*
X86650000Y-71200000D03*
X112900000Y-90500000D03*
G04 #@! TD*
D14*
G04 #@! TO.N,Net-(C3-Pad1)*
X106233728Y-83204004D02*
X106255485Y-83225761D01*
X106196322Y-83204004D02*
X106233728Y-83204004D01*
X107350000Y-82050326D02*
X106196322Y-83204004D01*
X107350000Y-80800000D02*
X107350000Y-82050326D01*
G04 #@! TO.N,Net-(D4-K)*
X115750000Y-94850000D02*
X115750000Y-98600001D01*
G04 #@! TO.N,Net-(D3-K)*
X105250000Y-97450000D02*
X105250000Y-98600001D01*
X105300000Y-97400000D02*
X105250000Y-97450000D01*
X105300000Y-94850000D02*
X105300000Y-97400000D01*
D15*
G04 #@! TO.N,Net-(C2-Pad1)*
X90900000Y-82250000D02*
X90900000Y-85050000D01*
X90900000Y-85050000D02*
X95150000Y-89300000D01*
X91000000Y-82150000D02*
X90900000Y-82250000D01*
X95150000Y-89300000D02*
X96750000Y-89300000D01*
D14*
G04 #@! TO.N,Net-(D1-K)*
X84250000Y-94504278D02*
X84250000Y-98600001D01*
X84245695Y-94499973D02*
X84250000Y-94504278D01*
G04 #@! TO.N,Net-(D2-K)*
X94000001Y-98600001D02*
X94750000Y-98600001D01*
X92200000Y-96800000D02*
X94000001Y-98600001D01*
X92200000Y-94350000D02*
X92200000Y-96800000D01*
G04 #@! TD*
G04 #@! TA.AperFunction,Conductor*
G04 #@! TO.N,GND*
G36*
X116202702Y-53500617D02*
G01*
X116586771Y-53517386D01*
X116597506Y-53518326D01*
X116975971Y-53568152D01*
X116986597Y-53570025D01*
X117359284Y-53652648D01*
X117369710Y-53655442D01*
X117733765Y-53770227D01*
X117743911Y-53773920D01*
X118096578Y-53920000D01*
X118106369Y-53924566D01*
X118444942Y-54100816D01*
X118454310Y-54106224D01*
X118776244Y-54311318D01*
X118785105Y-54317523D01*
X119087930Y-54549889D01*
X119096217Y-54556843D01*
X119377635Y-54814715D01*
X119385284Y-54822364D01*
X119643156Y-55103782D01*
X119650110Y-55112069D01*
X119882476Y-55414894D01*
X119888681Y-55423755D01*
X120093775Y-55745689D01*
X120099183Y-55755057D01*
X120275430Y-56093623D01*
X120280002Y-56103427D01*
X120426075Y-56456078D01*
X120429775Y-56466244D01*
X120544554Y-56830278D01*
X120547354Y-56840727D01*
X120629971Y-57213389D01*
X120631849Y-57224042D01*
X120681671Y-57602473D01*
X120682614Y-57613249D01*
X120699382Y-57997297D01*
X120699500Y-58002706D01*
X120699500Y-104875500D01*
X120679815Y-104942539D01*
X120627011Y-104988294D01*
X120575500Y-104999500D01*
X79424500Y-104999500D01*
X79357461Y-104979815D01*
X79311706Y-104927011D01*
X79300500Y-104875500D01*
X79300500Y-101824986D01*
X82875001Y-101824986D01*
X82885494Y-101927697D01*
X82940641Y-102094119D01*
X82940643Y-102094124D01*
X83032684Y-102243345D01*
X83156654Y-102367315D01*
X83305875Y-102459356D01*
X83305880Y-102459358D01*
X83472302Y-102514505D01*
X83472309Y-102514506D01*
X83575019Y-102524999D01*
X83999999Y-102524999D01*
X84500000Y-102524999D01*
X84924972Y-102524999D01*
X84924986Y-102524998D01*
X85027697Y-102514505D01*
X85194119Y-102459358D01*
X85194124Y-102459356D01*
X85343345Y-102367315D01*
X85467315Y-102243345D01*
X85559356Y-102094124D01*
X85559358Y-102094119D01*
X85614505Y-101927697D01*
X85614506Y-101927690D01*
X85624999Y-101824986D01*
X93375001Y-101824986D01*
X93385494Y-101927697D01*
X93440641Y-102094119D01*
X93440643Y-102094124D01*
X93532684Y-102243345D01*
X93656654Y-102367315D01*
X93805875Y-102459356D01*
X93805880Y-102459358D01*
X93972302Y-102514505D01*
X93972309Y-102514506D01*
X94075019Y-102524999D01*
X94499999Y-102524999D01*
X95000000Y-102524999D01*
X95424972Y-102524999D01*
X95424986Y-102524998D01*
X95527697Y-102514505D01*
X95694119Y-102459358D01*
X95694124Y-102459356D01*
X95843345Y-102367315D01*
X95967315Y-102243345D01*
X96059356Y-102094124D01*
X96059358Y-102094119D01*
X96114505Y-101927697D01*
X96114506Y-101927690D01*
X96124999Y-101824986D01*
X103875001Y-101824986D01*
X103885494Y-101927697D01*
X103940641Y-102094119D01*
X103940643Y-102094124D01*
X104032684Y-102243345D01*
X104156654Y-102367315D01*
X104305875Y-102459356D01*
X104305880Y-102459358D01*
X104472302Y-102514505D01*
X104472309Y-102514506D01*
X104575019Y-102524999D01*
X104999999Y-102524999D01*
X105500000Y-102524999D01*
X105924972Y-102524999D01*
X105924986Y-102524998D01*
X106027697Y-102514505D01*
X106194119Y-102459358D01*
X106194124Y-102459356D01*
X106343345Y-102367315D01*
X106467315Y-102243345D01*
X106559356Y-102094124D01*
X106559358Y-102094119D01*
X106614505Y-101927697D01*
X106614506Y-101927690D01*
X106624999Y-101824986D01*
X114375001Y-101824986D01*
X114385494Y-101927697D01*
X114440641Y-102094119D01*
X114440643Y-102094124D01*
X114532684Y-102243345D01*
X114656654Y-102367315D01*
X114805875Y-102459356D01*
X114805880Y-102459358D01*
X114972302Y-102514505D01*
X114972309Y-102514506D01*
X115075019Y-102524999D01*
X115499999Y-102524999D01*
X116000000Y-102524999D01*
X116424972Y-102524999D01*
X116424986Y-102524998D01*
X116527697Y-102514505D01*
X116694119Y-102459358D01*
X116694124Y-102459356D01*
X116843345Y-102367315D01*
X116967315Y-102243345D01*
X117059356Y-102094124D01*
X117059358Y-102094119D01*
X117114505Y-101927697D01*
X117114506Y-101927690D01*
X117124999Y-101824986D01*
X117125000Y-101824973D01*
X117125000Y-101650000D01*
X116000000Y-101650000D01*
X116000000Y-102524999D01*
X115499999Y-102524999D01*
X115500000Y-102524998D01*
X115500000Y-101650000D01*
X114375001Y-101650000D01*
X114375001Y-101824986D01*
X106624999Y-101824986D01*
X106625000Y-101824973D01*
X106625000Y-101650000D01*
X105500000Y-101650000D01*
X105500000Y-102524999D01*
X104999999Y-102524999D01*
X105000000Y-102524998D01*
X105000000Y-101650000D01*
X103875001Y-101650000D01*
X103875001Y-101824986D01*
X96124999Y-101824986D01*
X96125000Y-101824973D01*
X96125000Y-101650000D01*
X95000000Y-101650000D01*
X95000000Y-102524999D01*
X94499999Y-102524999D01*
X94500000Y-102524998D01*
X94500000Y-101650000D01*
X93375001Y-101650000D01*
X93375001Y-101824986D01*
X85624999Y-101824986D01*
X85625000Y-101824973D01*
X85625000Y-101650000D01*
X84500000Y-101650000D01*
X84500000Y-102524999D01*
X83999999Y-102524999D01*
X84000000Y-102524998D01*
X84000000Y-101650000D01*
X82875001Y-101650000D01*
X82875001Y-101824986D01*
X79300500Y-101824986D01*
X79300500Y-100975013D01*
X82875000Y-100975013D01*
X82875000Y-101150000D01*
X84000000Y-101150000D01*
X84500000Y-101150000D01*
X85624999Y-101150000D01*
X85624999Y-100975029D01*
X85624998Y-100975013D01*
X93375000Y-100975013D01*
X93375000Y-101150000D01*
X94500000Y-101150000D01*
X95000000Y-101150000D01*
X96124999Y-101150000D01*
X96124999Y-100975029D01*
X96124998Y-100975013D01*
X103875000Y-100975013D01*
X103875000Y-101150000D01*
X105000000Y-101150000D01*
X105500000Y-101150000D01*
X106624999Y-101150000D01*
X106624999Y-100975029D01*
X106624998Y-100975013D01*
X114375000Y-100975013D01*
X114375000Y-101150000D01*
X115500000Y-101150000D01*
X116000000Y-101150000D01*
X117124999Y-101150000D01*
X117124999Y-100975028D01*
X117124998Y-100975013D01*
X117114505Y-100872302D01*
X117059358Y-100705880D01*
X117059356Y-100705875D01*
X116967315Y-100556654D01*
X116843345Y-100432684D01*
X116694124Y-100340643D01*
X116694119Y-100340641D01*
X116527697Y-100285494D01*
X116527690Y-100285493D01*
X116424986Y-100275000D01*
X116000000Y-100275000D01*
X116000000Y-101150000D01*
X115500000Y-101150000D01*
X115500000Y-100275000D01*
X115075028Y-100275000D01*
X115075012Y-100275001D01*
X114972302Y-100285494D01*
X114805880Y-100340641D01*
X114805875Y-100340643D01*
X114656654Y-100432684D01*
X114532684Y-100556654D01*
X114440643Y-100705875D01*
X114440641Y-100705880D01*
X114385494Y-100872302D01*
X114385493Y-100872309D01*
X114375000Y-100975013D01*
X106624998Y-100975013D01*
X106624998Y-100975012D01*
X106614505Y-100872302D01*
X106559358Y-100705880D01*
X106559356Y-100705875D01*
X106467315Y-100556654D01*
X106343345Y-100432684D01*
X106194124Y-100340643D01*
X106194119Y-100340641D01*
X106027697Y-100285494D01*
X106027690Y-100285493D01*
X105924986Y-100275000D01*
X105500000Y-100275000D01*
X105500000Y-101150000D01*
X105000000Y-101150000D01*
X105000000Y-100275000D01*
X104575028Y-100275000D01*
X104575012Y-100275001D01*
X104472302Y-100285494D01*
X104305880Y-100340641D01*
X104305875Y-100340643D01*
X104156654Y-100432684D01*
X104032684Y-100556654D01*
X103940643Y-100705875D01*
X103940641Y-100705880D01*
X103885494Y-100872302D01*
X103885493Y-100872309D01*
X103875000Y-100975013D01*
X96124998Y-100975013D01*
X96124998Y-100975012D01*
X96114505Y-100872302D01*
X96059358Y-100705880D01*
X96059356Y-100705875D01*
X95967315Y-100556654D01*
X95843345Y-100432684D01*
X95694124Y-100340643D01*
X95694119Y-100340641D01*
X95527697Y-100285494D01*
X95527690Y-100285493D01*
X95424986Y-100275000D01*
X95000000Y-100275000D01*
X95000000Y-101150000D01*
X94500000Y-101150000D01*
X94500000Y-100275000D01*
X94075028Y-100275000D01*
X94075012Y-100275001D01*
X93972302Y-100285494D01*
X93805880Y-100340641D01*
X93805875Y-100340643D01*
X93656654Y-100432684D01*
X93532684Y-100556654D01*
X93440643Y-100705875D01*
X93440641Y-100705880D01*
X93385494Y-100872302D01*
X93385493Y-100872309D01*
X93375000Y-100975013D01*
X85624998Y-100975013D01*
X85624998Y-100975012D01*
X85614505Y-100872302D01*
X85559358Y-100705880D01*
X85559356Y-100705875D01*
X85467315Y-100556654D01*
X85343345Y-100432684D01*
X85194124Y-100340643D01*
X85194119Y-100340641D01*
X85027697Y-100285494D01*
X85027690Y-100285493D01*
X84924986Y-100275000D01*
X84500000Y-100275000D01*
X84500000Y-101150000D01*
X84000000Y-101150000D01*
X84000000Y-100275000D01*
X83575028Y-100275000D01*
X83575012Y-100275001D01*
X83472302Y-100285494D01*
X83305880Y-100340641D01*
X83305875Y-100340643D01*
X83156654Y-100432684D01*
X83032684Y-100556654D01*
X82940643Y-100705875D01*
X82940641Y-100705880D01*
X82885494Y-100872302D01*
X82885493Y-100872309D01*
X82875000Y-100975013D01*
X79300500Y-100975013D01*
X79300500Y-98174983D01*
X82874500Y-98174983D01*
X82874500Y-99025001D01*
X82874501Y-99025019D01*
X82885000Y-99127796D01*
X82885001Y-99127799D01*
X82940185Y-99294331D01*
X82940186Y-99294334D01*
X83032288Y-99443656D01*
X83156344Y-99567712D01*
X83305666Y-99659814D01*
X83472203Y-99714999D01*
X83574991Y-99725500D01*
X84925008Y-99725499D01*
X85027797Y-99714999D01*
X85194334Y-99659814D01*
X85343656Y-99567712D01*
X85467712Y-99443656D01*
X85559814Y-99294334D01*
X85614999Y-99127797D01*
X85625500Y-99025009D01*
X85625499Y-98174992D01*
X85614999Y-98072203D01*
X85559814Y-97905666D01*
X85467712Y-97756344D01*
X85343656Y-97632288D01*
X85194334Y-97540186D01*
X85027797Y-97485001D01*
X85023965Y-97484609D01*
X85011894Y-97483376D01*
X84947203Y-97456978D01*
X84907053Y-97399796D01*
X84900500Y-97360018D01*
X84900500Y-95088462D01*
X84920185Y-95021423D01*
X84921398Y-95019571D01*
X84931826Y-95003963D01*
X84999398Y-94902836D01*
X85063511Y-94748055D01*
X85096195Y-94583740D01*
X85096195Y-94416206D01*
X85080883Y-94339228D01*
X85069965Y-94284337D01*
X85069964Y-94284335D01*
X85066363Y-94266228D01*
X91349500Y-94266228D01*
X91349500Y-94433771D01*
X91382182Y-94598074D01*
X91382184Y-94598082D01*
X91446295Y-94752860D01*
X91528602Y-94876040D01*
X91549480Y-94942717D01*
X91549500Y-94944931D01*
X91549500Y-96864069D01*
X91555598Y-96894723D01*
X91574499Y-96989744D01*
X91623535Y-97108127D01*
X91694723Y-97214669D01*
X91694726Y-97214673D01*
X91694727Y-97214674D01*
X93338181Y-98858127D01*
X93371666Y-98919450D01*
X93374500Y-98945806D01*
X93374500Y-99025000D01*
X93374501Y-99025019D01*
X93385000Y-99127796D01*
X93385001Y-99127799D01*
X93440185Y-99294331D01*
X93440186Y-99294334D01*
X93532288Y-99443656D01*
X93656344Y-99567712D01*
X93805666Y-99659814D01*
X93972203Y-99714999D01*
X94074991Y-99725500D01*
X95425008Y-99725499D01*
X95527797Y-99714999D01*
X95694334Y-99659814D01*
X95843656Y-99567712D01*
X95967712Y-99443656D01*
X96059814Y-99294334D01*
X96114999Y-99127797D01*
X96125500Y-99025009D01*
X96125499Y-98174992D01*
X96125498Y-98174983D01*
X103874500Y-98174983D01*
X103874500Y-99025001D01*
X103874501Y-99025019D01*
X103885000Y-99127796D01*
X103885001Y-99127799D01*
X103940185Y-99294331D01*
X103940186Y-99294334D01*
X104032288Y-99443656D01*
X104156344Y-99567712D01*
X104305666Y-99659814D01*
X104472203Y-99714999D01*
X104574991Y-99725500D01*
X105925008Y-99725499D01*
X106027797Y-99714999D01*
X106194334Y-99659814D01*
X106343656Y-99567712D01*
X106467712Y-99443656D01*
X106559814Y-99294334D01*
X106614999Y-99127797D01*
X106625500Y-99025009D01*
X106625499Y-98174992D01*
X106625498Y-98174983D01*
X114374500Y-98174983D01*
X114374500Y-99025001D01*
X114374501Y-99025019D01*
X114385000Y-99127796D01*
X114385001Y-99127799D01*
X114440185Y-99294331D01*
X114440186Y-99294334D01*
X114532288Y-99443656D01*
X114656344Y-99567712D01*
X114805666Y-99659814D01*
X114972203Y-99714999D01*
X115074991Y-99725500D01*
X116425008Y-99725499D01*
X116527797Y-99714999D01*
X116694334Y-99659814D01*
X116843656Y-99567712D01*
X116967712Y-99443656D01*
X117059814Y-99294334D01*
X117114999Y-99127797D01*
X117125500Y-99025009D01*
X117125499Y-98174992D01*
X117114999Y-98072203D01*
X117059814Y-97905666D01*
X116967712Y-97756344D01*
X116843656Y-97632288D01*
X116694334Y-97540186D01*
X116527797Y-97485001D01*
X116523965Y-97484609D01*
X116511894Y-97483376D01*
X116447203Y-97456978D01*
X116407053Y-97399796D01*
X116400500Y-97360018D01*
X116400500Y-95444931D01*
X116420185Y-95377892D01*
X116421398Y-95376040D01*
X116503703Y-95252863D01*
X116567816Y-95098082D01*
X116600500Y-94933767D01*
X116600500Y-94766233D01*
X116567816Y-94601918D01*
X116503703Y-94447137D01*
X116472537Y-94400494D01*
X116410626Y-94307837D01*
X116292162Y-94189373D01*
X116152860Y-94096295D01*
X115998082Y-94032184D01*
X115998074Y-94032182D01*
X115833771Y-93999500D01*
X115833767Y-93999500D01*
X115666233Y-93999500D01*
X115666228Y-93999500D01*
X115501925Y-94032182D01*
X115501917Y-94032184D01*
X115347139Y-94096295D01*
X115207837Y-94189373D01*
X115089373Y-94307837D01*
X114996295Y-94447139D01*
X114932184Y-94601917D01*
X114932182Y-94601925D01*
X114899500Y-94766228D01*
X114899500Y-94933771D01*
X114932182Y-95098074D01*
X114932184Y-95098082D01*
X114996295Y-95252860D01*
X115078602Y-95376040D01*
X115099480Y-95442717D01*
X115099500Y-95444931D01*
X115099500Y-97360018D01*
X115079815Y-97427057D01*
X115027011Y-97472812D01*
X114988107Y-97483376D01*
X114972200Y-97485001D01*
X114805668Y-97540185D01*
X114805663Y-97540187D01*
X114656342Y-97632289D01*
X114532289Y-97756342D01*
X114440187Y-97905663D01*
X114440186Y-97905666D01*
X114385001Y-98072203D01*
X114385001Y-98072204D01*
X114385000Y-98072204D01*
X114374500Y-98174983D01*
X106625498Y-98174983D01*
X106614999Y-98072203D01*
X106559814Y-97905666D01*
X106467712Y-97756344D01*
X106343656Y-97632288D01*
X106194334Y-97540186D01*
X106153422Y-97526629D01*
X106035496Y-97487552D01*
X105978051Y-97447779D01*
X105951228Y-97383263D01*
X105950500Y-97369846D01*
X105950500Y-95444931D01*
X105970185Y-95377892D01*
X105971398Y-95376040D01*
X106053703Y-95252863D01*
X106117816Y-95098082D01*
X106150500Y-94933767D01*
X106150500Y-94766233D01*
X106117816Y-94601918D01*
X106053703Y-94447137D01*
X106022537Y-94400494D01*
X105960626Y-94307837D01*
X105842162Y-94189373D01*
X105702860Y-94096295D01*
X105548082Y-94032184D01*
X105548074Y-94032182D01*
X105383771Y-93999500D01*
X105383767Y-93999500D01*
X105216233Y-93999500D01*
X105216228Y-93999500D01*
X105051925Y-94032182D01*
X105051917Y-94032184D01*
X104897139Y-94096295D01*
X104757837Y-94189373D01*
X104639373Y-94307837D01*
X104546295Y-94447139D01*
X104482184Y-94601917D01*
X104482182Y-94601925D01*
X104449500Y-94766228D01*
X104449500Y-94933771D01*
X104482182Y-95098074D01*
X104482184Y-95098082D01*
X104546295Y-95252860D01*
X104628602Y-95376040D01*
X104649480Y-95442717D01*
X104649500Y-95444931D01*
X104649500Y-97175233D01*
X104645628Y-97205977D01*
X104643438Y-97214531D01*
X104624499Y-97260256D01*
X104599500Y-97385931D01*
X104599500Y-97386215D01*
X104598409Y-97390478D01*
X104582211Y-97417736D01*
X104567513Y-97445837D01*
X104564493Y-97447556D01*
X104562718Y-97450544D01*
X104534357Y-97464716D01*
X104506797Y-97480411D01*
X104500998Y-97481388D01*
X104500218Y-97481778D01*
X104499284Y-97481676D01*
X104490887Y-97483092D01*
X104472200Y-97485001D01*
X104305668Y-97540185D01*
X104305663Y-97540187D01*
X104156342Y-97632289D01*
X104032289Y-97756342D01*
X103940187Y-97905663D01*
X103940186Y-97905666D01*
X103885001Y-98072203D01*
X103885001Y-98072204D01*
X103885000Y-98072204D01*
X103874500Y-98174983D01*
X96125498Y-98174983D01*
X96114999Y-98072203D01*
X96059814Y-97905666D01*
X95967712Y-97756344D01*
X95843656Y-97632288D01*
X95694334Y-97540186D01*
X95527797Y-97485001D01*
X95527795Y-97485000D01*
X95425010Y-97474500D01*
X94074998Y-97474500D01*
X94074981Y-97474501D01*
X93972203Y-97485000D01*
X93972196Y-97485002D01*
X93919176Y-97502571D01*
X93849347Y-97504972D01*
X93792492Y-97472546D01*
X92886819Y-96566873D01*
X92853334Y-96505550D01*
X92850500Y-96479192D01*
X92850500Y-94944931D01*
X92870185Y-94877892D01*
X92871398Y-94876040D01*
X92953703Y-94752863D01*
X93017816Y-94598082D01*
X93050500Y-94433767D01*
X93050500Y-94266233D01*
X93017816Y-94101918D01*
X92953703Y-93947137D01*
X92881680Y-93839347D01*
X92860626Y-93807837D01*
X92742162Y-93689373D01*
X92602860Y-93596295D01*
X92448082Y-93532184D01*
X92448074Y-93532182D01*
X92283771Y-93499500D01*
X92283767Y-93499500D01*
X92116233Y-93499500D01*
X92116228Y-93499500D01*
X91951925Y-93532182D01*
X91951917Y-93532184D01*
X91797139Y-93596295D01*
X91657837Y-93689373D01*
X91539373Y-93807837D01*
X91446295Y-93947139D01*
X91382184Y-94101917D01*
X91382182Y-94101925D01*
X91349500Y-94266228D01*
X85066363Y-94266228D01*
X85063511Y-94251891D01*
X85013922Y-94132174D01*
X84999399Y-94097112D01*
X84998854Y-94096297D01*
X84934177Y-93999500D01*
X84906321Y-93957810D01*
X84787857Y-93839346D01*
X84648555Y-93746268D01*
X84493777Y-93682157D01*
X84493769Y-93682155D01*
X84329466Y-93649473D01*
X84329462Y-93649473D01*
X84161928Y-93649473D01*
X84161923Y-93649473D01*
X83997620Y-93682155D01*
X83997612Y-93682157D01*
X83842834Y-93746268D01*
X83703532Y-93839346D01*
X83585068Y-93957810D01*
X83491990Y-94097112D01*
X83427879Y-94251890D01*
X83427877Y-94251898D01*
X83395195Y-94416201D01*
X83395195Y-94583744D01*
X83427877Y-94748047D01*
X83427879Y-94748055D01*
X83491990Y-94902833D01*
X83578602Y-95032456D01*
X83599480Y-95099133D01*
X83599500Y-95101347D01*
X83599500Y-97360018D01*
X83579815Y-97427057D01*
X83527011Y-97472812D01*
X83488107Y-97483376D01*
X83472200Y-97485001D01*
X83305668Y-97540185D01*
X83305663Y-97540187D01*
X83156342Y-97632289D01*
X83032289Y-97756342D01*
X82940187Y-97905663D01*
X82940186Y-97905666D01*
X82885001Y-98072203D01*
X82885001Y-98072204D01*
X82885000Y-98072204D01*
X82874500Y-98174983D01*
X79300500Y-98174983D01*
X79300500Y-65862332D01*
X81699500Y-65862332D01*
X81699500Y-83137667D01*
X81699501Y-83137684D01*
X81735438Y-83410655D01*
X81735439Y-83410660D01*
X81735440Y-83410666D01*
X81735441Y-83410668D01*
X81806704Y-83676630D01*
X81912075Y-83931017D01*
X81912080Y-83931028D01*
X81940046Y-83979465D01*
X82049751Y-84169479D01*
X82049753Y-84169482D01*
X82049754Y-84169483D01*
X82217370Y-84387926D01*
X82217376Y-84387933D01*
X82412066Y-84582623D01*
X82412072Y-84582628D01*
X82630521Y-84750249D01*
X82781788Y-84837583D01*
X82868971Y-84887919D01*
X82868976Y-84887921D01*
X82868979Y-84887923D01*
X83123368Y-84993295D01*
X83389334Y-85064560D01*
X83662326Y-85100500D01*
X83662333Y-85100500D01*
X83937667Y-85100500D01*
X83937674Y-85100500D01*
X84210666Y-85064560D01*
X84476632Y-84993295D01*
X84731021Y-84887923D01*
X84969479Y-84750249D01*
X85187928Y-84582628D01*
X85382628Y-84387928D01*
X85550249Y-84169479D01*
X85687923Y-83931021D01*
X85793295Y-83676632D01*
X85864560Y-83410666D01*
X85900500Y-83137674D01*
X85900500Y-83000000D01*
X85900500Y-82934108D01*
X85900500Y-82066228D01*
X90149500Y-82066228D01*
X90149500Y-82233771D01*
X90182182Y-82398074D01*
X90182184Y-82398082D01*
X90246295Y-82552860D01*
X90278602Y-82601210D01*
X90299480Y-82667887D01*
X90299500Y-82670101D01*
X90299500Y-84963330D01*
X90299499Y-84963348D01*
X90299499Y-85129054D01*
X90299498Y-85129054D01*
X90340423Y-85281785D01*
X90369358Y-85331900D01*
X90369359Y-85331904D01*
X90369360Y-85331904D01*
X90419479Y-85418714D01*
X90419481Y-85418717D01*
X90538349Y-85537585D01*
X90538354Y-85537589D01*
X94781284Y-89780520D01*
X94781286Y-89780521D01*
X94781290Y-89780524D01*
X94888052Y-89842162D01*
X94918216Y-89859577D01*
X95070943Y-89900501D01*
X95070945Y-89900501D01*
X95236654Y-89900501D01*
X95236670Y-89900500D01*
X96096349Y-89900500D01*
X96163388Y-89920185D01*
X96184030Y-89936819D01*
X96207837Y-89960626D01*
X96300494Y-90022537D01*
X96347137Y-90053703D01*
X96501918Y-90117816D01*
X96666228Y-90150499D01*
X96666232Y-90150500D01*
X96666233Y-90150500D01*
X96833768Y-90150500D01*
X96833769Y-90150499D01*
X96998082Y-90117816D01*
X97152863Y-90053703D01*
X97292162Y-89960626D01*
X97410626Y-89842162D01*
X97503703Y-89702863D01*
X97567816Y-89548082D01*
X97600500Y-89383767D01*
X97600500Y-89216233D01*
X97567816Y-89051918D01*
X97503703Y-88897137D01*
X97472537Y-88850494D01*
X97410626Y-88757837D01*
X97292162Y-88639373D01*
X97152860Y-88546295D01*
X96998082Y-88482184D01*
X96998074Y-88482182D01*
X96833771Y-88449500D01*
X96833767Y-88449500D01*
X96666233Y-88449500D01*
X96666228Y-88449500D01*
X96501925Y-88482182D01*
X96501917Y-88482184D01*
X96347139Y-88546295D01*
X96207837Y-88639373D01*
X96207834Y-88639376D01*
X96184030Y-88663181D01*
X96122707Y-88696666D01*
X96096349Y-88699500D01*
X95450098Y-88699500D01*
X95383059Y-88679815D01*
X95362417Y-88663181D01*
X91536819Y-84837583D01*
X91503334Y-84776260D01*
X91500500Y-84749902D01*
X91500500Y-83141989D01*
X105404985Y-83141989D01*
X105404985Y-83309532D01*
X105437667Y-83473835D01*
X105437669Y-83473843D01*
X105501780Y-83628621D01*
X105594858Y-83767923D01*
X105713322Y-83886387D01*
X105805979Y-83948298D01*
X105852622Y-83979464D01*
X106007403Y-84043577D01*
X106171713Y-84076260D01*
X106171717Y-84076261D01*
X106171718Y-84076261D01*
X106339253Y-84076261D01*
X106339254Y-84076260D01*
X106503567Y-84043577D01*
X106658348Y-83979464D01*
X106797647Y-83886387D01*
X106916111Y-83767923D01*
X107009188Y-83628624D01*
X107073301Y-83473843D01*
X107105985Y-83309528D01*
X107105985Y-83265649D01*
X107125670Y-83198610D01*
X107142304Y-83177968D01*
X107855273Y-82464999D01*
X107855277Y-82464995D01*
X107926465Y-82358453D01*
X107975501Y-82240070D01*
X107980673Y-82214069D01*
X108000500Y-82114395D01*
X108000500Y-81394931D01*
X108020185Y-81327892D01*
X108021398Y-81326040D01*
X108103703Y-81202863D01*
X108167816Y-81048082D01*
X108200500Y-80883767D01*
X108200500Y-80716233D01*
X108167816Y-80551918D01*
X108103703Y-80397137D01*
X108072537Y-80350494D01*
X108010626Y-80257837D01*
X107892162Y-80139373D01*
X107752860Y-80046295D01*
X107598082Y-79982184D01*
X107598074Y-79982182D01*
X107433771Y-79949500D01*
X107433767Y-79949500D01*
X107266233Y-79949500D01*
X107266228Y-79949500D01*
X107101925Y-79982182D01*
X107101917Y-79982184D01*
X106947139Y-80046295D01*
X106807837Y-80139373D01*
X106689373Y-80257837D01*
X106596295Y-80397139D01*
X106532184Y-80551917D01*
X106532182Y-80551925D01*
X106499500Y-80716228D01*
X106499500Y-80883771D01*
X106532182Y-81048074D01*
X106532184Y-81048082D01*
X106596295Y-81202860D01*
X106678602Y-81326040D01*
X106699480Y-81392717D01*
X106699500Y-81394931D01*
X106699500Y-81729517D01*
X106679815Y-81796556D01*
X106663181Y-81817198D01*
X106115179Y-82365199D01*
X106053856Y-82398684D01*
X106051690Y-82399135D01*
X106007408Y-82407943D01*
X106007404Y-82407944D01*
X105852624Y-82472056D01*
X105713322Y-82565134D01*
X105594858Y-82683598D01*
X105501780Y-82822900D01*
X105437669Y-82977678D01*
X105437667Y-82977686D01*
X105404985Y-83141989D01*
X91500500Y-83141989D01*
X91500500Y-82903464D01*
X91520185Y-82836425D01*
X91538630Y-82815709D01*
X91537854Y-82814933D01*
X91542158Y-82810628D01*
X91542162Y-82810626D01*
X91660626Y-82692162D01*
X91753703Y-82552863D01*
X91817816Y-82398082D01*
X91850500Y-82233767D01*
X91850500Y-82066233D01*
X91817816Y-81901918D01*
X91753703Y-81747137D01*
X91722537Y-81700494D01*
X91660626Y-81607837D01*
X91542162Y-81489373D01*
X91402860Y-81396295D01*
X91248082Y-81332184D01*
X91248074Y-81332182D01*
X91083771Y-81299500D01*
X91083767Y-81299500D01*
X90916233Y-81299500D01*
X90916228Y-81299500D01*
X90751925Y-81332182D01*
X90751917Y-81332184D01*
X90597139Y-81396295D01*
X90457837Y-81489373D01*
X90339373Y-81607837D01*
X90246295Y-81747139D01*
X90182184Y-81901917D01*
X90182182Y-81901925D01*
X90149500Y-82066228D01*
X85900500Y-82066228D01*
X85900500Y-73131083D01*
X94319904Y-73131083D01*
X94319904Y-73319730D01*
X94349415Y-73506057D01*
X94407708Y-73685468D01*
X94407709Y-73685470D01*
X94493356Y-73853560D01*
X94511593Y-73878662D01*
X94511594Y-73878662D01*
X95080756Y-73309500D01*
X95104196Y-73396978D01*
X95162715Y-73498337D01*
X95245474Y-73581096D01*
X95346833Y-73639615D01*
X95434309Y-73663054D01*
X94865147Y-74232215D01*
X94865147Y-74232216D01*
X94890248Y-74250453D01*
X95058339Y-74336101D01*
X95058342Y-74336102D01*
X95237753Y-74394395D01*
X95424081Y-74423907D01*
X95612727Y-74423907D01*
X95799054Y-74394395D01*
X95978465Y-74336102D01*
X95978468Y-74336101D01*
X96146555Y-74250455D01*
X96171660Y-74232215D01*
X95602499Y-73663054D01*
X95689975Y-73639615D01*
X95791334Y-73581096D01*
X95874093Y-73498337D01*
X95932612Y-73396978D01*
X95956051Y-73309502D01*
X96525212Y-73878663D01*
X96525212Y-73878662D01*
X96543452Y-73853558D01*
X96629098Y-73685471D01*
X96629099Y-73685468D01*
X96670473Y-73558131D01*
X96709910Y-73500456D01*
X96774269Y-73473257D01*
X96843115Y-73485171D01*
X96894591Y-73532415D01*
X96906335Y-73558131D01*
X96947708Y-73685468D01*
X96947709Y-73685470D01*
X97033356Y-73853560D01*
X97051593Y-73878662D01*
X97051594Y-73878662D01*
X97620756Y-73309500D01*
X97644196Y-73396978D01*
X97702715Y-73498337D01*
X97785474Y-73581096D01*
X97886833Y-73639615D01*
X97974309Y-73663054D01*
X97405147Y-74232215D01*
X97405147Y-74232216D01*
X97430248Y-74250453D01*
X97598339Y-74336101D01*
X97598342Y-74336102D01*
X97777753Y-74394395D01*
X97964081Y-74423907D01*
X98152727Y-74423907D01*
X98339054Y-74394395D01*
X98518465Y-74336102D01*
X98518468Y-74336101D01*
X98686555Y-74250455D01*
X98711659Y-74232215D01*
X98711660Y-74232215D01*
X98142499Y-73663054D01*
X98229975Y-73639615D01*
X98331334Y-73581096D01*
X98414093Y-73498337D01*
X98472612Y-73396978D01*
X98496051Y-73309502D01*
X99065212Y-73878663D01*
X99065212Y-73878662D01*
X99083452Y-73853558D01*
X99169098Y-73685471D01*
X99169100Y-73685465D01*
X99210210Y-73558941D01*
X99249647Y-73501265D01*
X99314005Y-73474066D01*
X99382852Y-73485980D01*
X99434328Y-73533224D01*
X99446070Y-73558935D01*
X99452577Y-73578960D01*
X99487248Y-73685667D01*
X99572794Y-73853558D01*
X99572927Y-73853820D01*
X99683858Y-74006503D01*
X99817308Y-74139953D01*
X99969991Y-74250884D01*
X100138148Y-74336564D01*
X100317637Y-74394884D01*
X100387538Y-74405955D01*
X100504036Y-74424407D01*
X100504041Y-74424407D01*
X100692772Y-74424407D01*
X100796324Y-74408005D01*
X100879171Y-74394884D01*
X101058660Y-74336564D01*
X101226817Y-74250884D01*
X101379500Y-74139953D01*
X101512950Y-74006503D01*
X101623881Y-73853820D01*
X101709561Y-73685663D01*
X101750474Y-73559746D01*
X101789910Y-73502072D01*
X101854269Y-73474874D01*
X101923115Y-73486789D01*
X101974591Y-73534033D01*
X101986332Y-73559743D01*
X102027247Y-73685663D01*
X102112927Y-73853820D01*
X102223858Y-74006503D01*
X102357308Y-74139953D01*
X102509991Y-74250884D01*
X102678148Y-74336564D01*
X102857637Y-74394884D01*
X102927538Y-74405955D01*
X103044036Y-74424407D01*
X103044041Y-74424407D01*
X103232772Y-74424407D01*
X103336324Y-74408005D01*
X103419171Y-74394884D01*
X103598660Y-74336564D01*
X103766817Y-74250884D01*
X103919500Y-74139953D01*
X104052950Y-74006503D01*
X104163881Y-73853820D01*
X104249561Y-73685663D01*
X104307881Y-73506174D01*
X104325176Y-73396978D01*
X104337404Y-73319775D01*
X104337404Y-73131038D01*
X104308658Y-72949549D01*
X104307881Y-72944640D01*
X104249561Y-72765151D01*
X104163881Y-72596994D01*
X104052950Y-72444311D01*
X103919500Y-72310861D01*
X103766817Y-72199930D01*
X103598660Y-72114250D01*
X103419171Y-72055930D01*
X103419169Y-72055929D01*
X103419167Y-72055929D01*
X103232772Y-72026407D01*
X103232767Y-72026407D01*
X103044041Y-72026407D01*
X103044036Y-72026407D01*
X102857640Y-72055929D01*
X102678145Y-72114251D01*
X102509990Y-72199930D01*
X102422879Y-72263220D01*
X102357308Y-72310861D01*
X102357306Y-72310863D01*
X102357305Y-72310863D01*
X102223860Y-72444308D01*
X102223860Y-72444309D01*
X102223858Y-72444311D01*
X102176217Y-72509882D01*
X102112927Y-72596993D01*
X102027248Y-72765148D01*
X101986335Y-72891065D01*
X101946897Y-72948741D01*
X101882539Y-72975939D01*
X101813692Y-72964024D01*
X101762217Y-72916780D01*
X101750473Y-72891065D01*
X101709561Y-72765151D01*
X101623881Y-72596994D01*
X101512950Y-72444311D01*
X101379500Y-72310861D01*
X101226817Y-72199930D01*
X101058660Y-72114250D01*
X100879171Y-72055930D01*
X100879169Y-72055929D01*
X100879167Y-72055929D01*
X100692772Y-72026407D01*
X100692767Y-72026407D01*
X100504041Y-72026407D01*
X100504036Y-72026407D01*
X100317640Y-72055929D01*
X100138145Y-72114251D01*
X99969990Y-72199930D01*
X99882879Y-72263220D01*
X99817308Y-72310861D01*
X99817306Y-72310863D01*
X99817305Y-72310863D01*
X99683860Y-72444308D01*
X99683860Y-72444309D01*
X99683858Y-72444311D01*
X99636217Y-72509882D01*
X99572927Y-72596993D01*
X99487248Y-72765146D01*
X99446072Y-72891874D01*
X99406634Y-72949549D01*
X99342275Y-72976747D01*
X99273429Y-72964832D01*
X99221953Y-72917588D01*
X99210210Y-72891873D01*
X99169099Y-72765345D01*
X99169098Y-72765342D01*
X99083450Y-72597251D01*
X99065213Y-72572150D01*
X99065212Y-72572150D01*
X98496051Y-73141311D01*
X98472612Y-73053836D01*
X98414093Y-72952477D01*
X98331334Y-72869718D01*
X98229975Y-72811199D01*
X98142498Y-72787759D01*
X98711659Y-72218597D01*
X98711659Y-72218596D01*
X98686557Y-72200359D01*
X98518467Y-72114712D01*
X98518465Y-72114711D01*
X98339054Y-72056418D01*
X98152727Y-72026907D01*
X97964081Y-72026907D01*
X97777753Y-72056418D01*
X97598342Y-72114711D01*
X97598340Y-72114712D01*
X97430248Y-72200360D01*
X97430243Y-72200364D01*
X97405147Y-72218595D01*
X97405147Y-72218598D01*
X97974310Y-72787759D01*
X97886833Y-72811199D01*
X97785474Y-72869718D01*
X97702715Y-72952477D01*
X97644196Y-73053836D01*
X97620756Y-73141312D01*
X97051595Y-72572150D01*
X97051592Y-72572150D01*
X97033361Y-72597246D01*
X97033357Y-72597251D01*
X96947709Y-72765343D01*
X96947708Y-72765345D01*
X96906335Y-72892682D01*
X96866898Y-72950357D01*
X96802539Y-72977556D01*
X96733693Y-72965642D01*
X96682217Y-72918398D01*
X96670473Y-72892682D01*
X96629099Y-72765345D01*
X96629098Y-72765342D01*
X96543450Y-72597251D01*
X96525213Y-72572150D01*
X96525212Y-72572150D01*
X95956051Y-73141311D01*
X95932612Y-73053836D01*
X95874093Y-72952477D01*
X95791334Y-72869718D01*
X95689975Y-72811199D01*
X95602498Y-72787759D01*
X96171659Y-72218597D01*
X96171659Y-72218596D01*
X96146557Y-72200359D01*
X95978467Y-72114712D01*
X95978465Y-72114711D01*
X95799054Y-72056418D01*
X95612727Y-72026907D01*
X95424081Y-72026907D01*
X95237753Y-72056418D01*
X95058342Y-72114711D01*
X95058340Y-72114712D01*
X94890248Y-72200360D01*
X94890243Y-72200364D01*
X94865147Y-72218595D01*
X94865147Y-72218598D01*
X95434310Y-72787759D01*
X95346833Y-72811199D01*
X95245474Y-72869718D01*
X95162715Y-72952477D01*
X95104196Y-73053836D01*
X95080756Y-73141312D01*
X94511595Y-72572150D01*
X94511592Y-72572150D01*
X94493361Y-72597246D01*
X94493357Y-72597251D01*
X94407709Y-72765343D01*
X94407708Y-72765345D01*
X94349415Y-72944756D01*
X94319904Y-73131083D01*
X85900500Y-73131083D01*
X85900500Y-70591038D01*
X95589404Y-70591038D01*
X95589404Y-70779775D01*
X95618277Y-70962072D01*
X95618927Y-70966174D01*
X95677247Y-71145663D01*
X95762927Y-71313820D01*
X95873858Y-71466503D01*
X96007308Y-71599953D01*
X96159991Y-71710884D01*
X96328148Y-71796564D01*
X96507637Y-71854884D01*
X96577538Y-71865955D01*
X96694036Y-71884407D01*
X96694041Y-71884407D01*
X96882772Y-71884407D01*
X96986324Y-71868005D01*
X97069171Y-71854884D01*
X97248660Y-71796564D01*
X97416817Y-71710884D01*
X97569500Y-71599953D01*
X97702950Y-71466503D01*
X97813881Y-71313820D01*
X97899561Y-71145663D01*
X97940474Y-71019746D01*
X97979910Y-70962072D01*
X98044269Y-70934874D01*
X98113115Y-70946789D01*
X98164591Y-70994033D01*
X98176332Y-71019743D01*
X98217247Y-71145663D01*
X98302927Y-71313820D01*
X98413858Y-71466503D01*
X98547308Y-71599953D01*
X98699991Y-71710884D01*
X98868148Y-71796564D01*
X99047637Y-71854884D01*
X99117538Y-71865955D01*
X99234036Y-71884407D01*
X99234041Y-71884407D01*
X99422772Y-71884407D01*
X99526324Y-71868005D01*
X99609171Y-71854884D01*
X99788660Y-71796564D01*
X99956817Y-71710884D01*
X100109500Y-71599953D01*
X100242950Y-71466503D01*
X100353881Y-71313820D01*
X100439561Y-71145663D01*
X100480474Y-71019746D01*
X100519910Y-70962072D01*
X100584269Y-70934874D01*
X100653115Y-70946789D01*
X100704591Y-70994033D01*
X100716332Y-71019743D01*
X100757247Y-71145663D01*
X100842927Y-71313820D01*
X100953858Y-71466503D01*
X101087308Y-71599953D01*
X101239991Y-71710884D01*
X101408148Y-71796564D01*
X101587637Y-71854884D01*
X101657538Y-71865955D01*
X101774036Y-71884407D01*
X101774041Y-71884407D01*
X101962772Y-71884407D01*
X102066324Y-71868005D01*
X102149171Y-71854884D01*
X102328660Y-71796564D01*
X102496817Y-71710884D01*
X102649500Y-71599953D01*
X102782950Y-71466503D01*
X102893881Y-71313820D01*
X102979561Y-71145663D01*
X103020474Y-71019746D01*
X103059910Y-70962072D01*
X103124269Y-70934874D01*
X103193115Y-70946789D01*
X103244591Y-70994033D01*
X103256332Y-71019743D01*
X103297247Y-71145663D01*
X103382927Y-71313820D01*
X103493858Y-71466503D01*
X103627308Y-71599953D01*
X103779991Y-71710884D01*
X103948148Y-71796564D01*
X104127637Y-71854884D01*
X104197538Y-71865955D01*
X104314036Y-71884407D01*
X104314041Y-71884407D01*
X104502772Y-71884407D01*
X104606324Y-71868005D01*
X104689171Y-71854884D01*
X104868660Y-71796564D01*
X105036817Y-71710884D01*
X105189500Y-71599953D01*
X105322950Y-71466503D01*
X105433881Y-71313820D01*
X105519561Y-71145663D01*
X105577881Y-70966174D01*
X105591002Y-70883327D01*
X105607404Y-70779775D01*
X105607404Y-70591038D01*
X105580951Y-70424024D01*
X105577881Y-70404640D01*
X105519561Y-70225151D01*
X105433881Y-70056994D01*
X105322950Y-69904311D01*
X105189500Y-69770861D01*
X105036817Y-69659930D01*
X104868660Y-69574250D01*
X104689171Y-69515930D01*
X104689169Y-69515929D01*
X104689167Y-69515929D01*
X104502772Y-69486407D01*
X104502767Y-69486407D01*
X104314041Y-69486407D01*
X104314036Y-69486407D01*
X104127640Y-69515929D01*
X103948145Y-69574251D01*
X103779990Y-69659930D01*
X103692879Y-69723220D01*
X103627308Y-69770861D01*
X103627306Y-69770863D01*
X103627305Y-69770863D01*
X103493860Y-69904308D01*
X103493860Y-69904309D01*
X103493858Y-69904311D01*
X103446217Y-69969882D01*
X103382927Y-70056993D01*
X103297248Y-70225148D01*
X103256335Y-70351065D01*
X103216897Y-70408741D01*
X103152539Y-70435939D01*
X103083692Y-70424024D01*
X103032217Y-70376780D01*
X103020473Y-70351065D01*
X102979561Y-70225151D01*
X102893881Y-70056994D01*
X102782950Y-69904311D01*
X102649500Y-69770861D01*
X102496817Y-69659930D01*
X102328660Y-69574250D01*
X102149171Y-69515930D01*
X102149169Y-69515929D01*
X102149167Y-69515929D01*
X101962772Y-69486407D01*
X101962767Y-69486407D01*
X101774041Y-69486407D01*
X101774036Y-69486407D01*
X101587640Y-69515929D01*
X101408145Y-69574251D01*
X101239990Y-69659930D01*
X101152879Y-69723220D01*
X101087308Y-69770861D01*
X101087306Y-69770863D01*
X101087305Y-69770863D01*
X100953860Y-69904308D01*
X100953860Y-69904309D01*
X100953858Y-69904311D01*
X100906217Y-69969882D01*
X100842927Y-70056993D01*
X100757248Y-70225148D01*
X100716335Y-70351065D01*
X100676897Y-70408741D01*
X100612539Y-70435939D01*
X100543692Y-70424024D01*
X100492217Y-70376780D01*
X100480473Y-70351065D01*
X100439561Y-70225151D01*
X100353881Y-70056994D01*
X100242950Y-69904311D01*
X100109500Y-69770861D01*
X99956817Y-69659930D01*
X99788660Y-69574250D01*
X99609171Y-69515930D01*
X99609169Y-69515929D01*
X99609167Y-69515929D01*
X99422772Y-69486407D01*
X99422767Y-69486407D01*
X99234041Y-69486407D01*
X99234036Y-69486407D01*
X99047640Y-69515929D01*
X98868145Y-69574251D01*
X98699990Y-69659930D01*
X98612879Y-69723220D01*
X98547308Y-69770861D01*
X98547306Y-69770863D01*
X98547305Y-69770863D01*
X98413860Y-69904308D01*
X98413860Y-69904309D01*
X98413858Y-69904311D01*
X98366217Y-69969882D01*
X98302927Y-70056993D01*
X98217248Y-70225148D01*
X98176335Y-70351065D01*
X98136897Y-70408741D01*
X98072539Y-70435939D01*
X98003692Y-70424024D01*
X97952217Y-70376780D01*
X97940473Y-70351065D01*
X97899561Y-70225151D01*
X97813881Y-70056994D01*
X97702950Y-69904311D01*
X97569500Y-69770861D01*
X97416817Y-69659930D01*
X97248660Y-69574250D01*
X97069171Y-69515930D01*
X97069169Y-69515929D01*
X97069167Y-69515929D01*
X96882772Y-69486407D01*
X96882767Y-69486407D01*
X96694041Y-69486407D01*
X96694036Y-69486407D01*
X96507640Y-69515929D01*
X96328145Y-69574251D01*
X96159990Y-69659930D01*
X96072879Y-69723220D01*
X96007308Y-69770861D01*
X96007306Y-69770863D01*
X96007305Y-69770863D01*
X95873860Y-69904308D01*
X95873860Y-69904309D01*
X95873858Y-69904311D01*
X95826217Y-69969882D01*
X95762927Y-70056993D01*
X95677248Y-70225148D01*
X95618926Y-70404643D01*
X95589404Y-70591038D01*
X85900500Y-70591038D01*
X85900500Y-67261091D01*
X90662304Y-67261091D01*
X90662304Y-67505722D01*
X90700570Y-67747326D01*
X90776165Y-67979978D01*
X90887218Y-68197933D01*
X90955013Y-68291243D01*
X90955013Y-68291244D01*
X91500481Y-67745776D01*
X91507365Y-67762396D01*
X91594926Y-67893441D01*
X91706370Y-68004885D01*
X91837415Y-68092446D01*
X91854033Y-68099329D01*
X91308565Y-68644796D01*
X91401877Y-68712592D01*
X91619832Y-68823645D01*
X91852484Y-68899240D01*
X92094089Y-68937507D01*
X92338719Y-68937507D01*
X92580323Y-68899240D01*
X92812975Y-68823645D01*
X93030930Y-68712592D01*
X93124240Y-68644796D01*
X92578773Y-68099329D01*
X92595393Y-68092446D01*
X92726438Y-68004885D01*
X92837882Y-67893441D01*
X92925443Y-67762396D01*
X92932326Y-67745777D01*
X93477793Y-68291244D01*
X93477793Y-68291243D01*
X93545589Y-68197933D01*
X93656642Y-67979978D01*
X93732237Y-67747326D01*
X93770504Y-67505722D01*
X93770504Y-67261091D01*
X93732237Y-67019487D01*
X93656642Y-66786835D01*
X93545589Y-66568880D01*
X93477793Y-66475569D01*
X93477793Y-66475568D01*
X92932326Y-67021035D01*
X92925443Y-67004418D01*
X92837882Y-66873373D01*
X92726438Y-66761929D01*
X92595393Y-66674368D01*
X92578772Y-66667483D01*
X93124240Y-66122017D01*
X93120528Y-66074843D01*
X93134892Y-66006466D01*
X93183943Y-65956709D01*
X93252108Y-65941370D01*
X93306144Y-65957726D01*
X93416846Y-66021640D01*
X93644058Y-66115754D01*
X93881610Y-66179406D01*
X94125438Y-66211507D01*
X94125445Y-66211507D01*
X94371363Y-66211507D01*
X94371370Y-66211507D01*
X94615198Y-66179406D01*
X94852750Y-66115754D01*
X95079962Y-66021640D01*
X95292945Y-65898674D01*
X95488057Y-65748960D01*
X95661957Y-65575060D01*
X95811671Y-65379948D01*
X95934637Y-65166965D01*
X96028751Y-64939753D01*
X96092403Y-64702201D01*
X96124504Y-64458373D01*
X96124504Y-64212441D01*
X96124503Y-64212433D01*
X103802304Y-64212433D01*
X103802304Y-64458380D01*
X103834404Y-64702198D01*
X103898058Y-64939757D01*
X103951584Y-65068979D01*
X103992171Y-65166965D01*
X104115137Y-65379948D01*
X104115140Y-65379953D01*
X104115142Y-65379955D01*
X104264849Y-65575058D01*
X104264855Y-65575065D01*
X104438745Y-65748955D01*
X104438750Y-65748959D01*
X104438751Y-65748960D01*
X104633863Y-65898674D01*
X104846846Y-66021640D01*
X105074058Y-66115754D01*
X105311610Y-66179406D01*
X105555438Y-66211507D01*
X105555445Y-66211507D01*
X105801363Y-66211507D01*
X105801370Y-66211507D01*
X106045198Y-66179406D01*
X106282750Y-66115754D01*
X106509962Y-66021640D01*
X106620661Y-65957727D01*
X106688559Y-65941255D01*
X106754586Y-65964107D01*
X106797777Y-66019028D01*
X106806278Y-66074843D01*
X106802565Y-66122016D01*
X107348033Y-66667484D01*
X107331415Y-66674368D01*
X107200370Y-66761929D01*
X107088926Y-66873373D01*
X107001365Y-67004418D01*
X106994481Y-67021036D01*
X106449013Y-66475568D01*
X106449011Y-66475569D01*
X106381220Y-66568876D01*
X106270165Y-66786835D01*
X106194570Y-67019487D01*
X106156304Y-67261091D01*
X106156304Y-67505722D01*
X106194570Y-67747326D01*
X106270165Y-67979978D01*
X106381218Y-68197933D01*
X106449013Y-68291243D01*
X106449013Y-68291244D01*
X106994481Y-67745776D01*
X107001365Y-67762396D01*
X107088926Y-67893441D01*
X107200370Y-68004885D01*
X107331415Y-68092446D01*
X107348033Y-68099329D01*
X106802565Y-68644796D01*
X106895877Y-68712592D01*
X107113832Y-68823645D01*
X107346484Y-68899240D01*
X107588089Y-68937507D01*
X107832719Y-68937507D01*
X108074323Y-68899240D01*
X108306975Y-68823645D01*
X108524930Y-68712592D01*
X108618240Y-68644796D01*
X108072773Y-68099329D01*
X108089393Y-68092446D01*
X108220438Y-68004885D01*
X108331882Y-67893441D01*
X108419443Y-67762396D01*
X108426326Y-67745777D01*
X108971793Y-68291244D01*
X108971793Y-68291243D01*
X109039589Y-68197933D01*
X109150642Y-67979978D01*
X109226237Y-67747326D01*
X109264504Y-67505722D01*
X109264504Y-67261091D01*
X109226237Y-67019487D01*
X109150642Y-66786835D01*
X109039589Y-66568880D01*
X108971793Y-66475569D01*
X108971793Y-66475568D01*
X108426326Y-67021035D01*
X108419443Y-67004418D01*
X108331882Y-66873373D01*
X108220438Y-66761929D01*
X108089393Y-66674368D01*
X108072772Y-66667483D01*
X108618241Y-66122016D01*
X108524930Y-66054221D01*
X108357187Y-65968752D01*
X108306975Y-65943168D01*
X108074323Y-65867573D01*
X108041232Y-65862332D01*
X114099500Y-65862332D01*
X114099500Y-83137667D01*
X114099501Y-83137684D01*
X114135438Y-83410655D01*
X114135439Y-83410660D01*
X114135440Y-83410666D01*
X114135441Y-83410668D01*
X114206704Y-83676630D01*
X114312075Y-83931017D01*
X114312080Y-83931028D01*
X114340046Y-83979465D01*
X114449751Y-84169479D01*
X114449753Y-84169482D01*
X114449754Y-84169483D01*
X114617370Y-84387926D01*
X114617376Y-84387933D01*
X114812066Y-84582623D01*
X114812072Y-84582628D01*
X115030521Y-84750249D01*
X115181788Y-84837583D01*
X115268971Y-84887919D01*
X115268976Y-84887921D01*
X115268979Y-84887923D01*
X115523368Y-84993295D01*
X115789334Y-85064560D01*
X116062326Y-85100500D01*
X116062333Y-85100500D01*
X116337667Y-85100500D01*
X116337674Y-85100500D01*
X116610666Y-85064560D01*
X116876632Y-84993295D01*
X117131021Y-84887923D01*
X117369479Y-84750249D01*
X117587928Y-84582628D01*
X117782628Y-84387928D01*
X117950249Y-84169479D01*
X118087923Y-83931021D01*
X118193295Y-83676632D01*
X118264560Y-83410666D01*
X118300500Y-83137674D01*
X118300500Y-83000000D01*
X118300500Y-82934108D01*
X118300500Y-65934108D01*
X118300500Y-65862326D01*
X118264560Y-65589334D01*
X118193295Y-65323368D01*
X118087923Y-65068979D01*
X118087921Y-65068976D01*
X118087919Y-65068971D01*
X118038732Y-64983778D01*
X117950249Y-64830521D01*
X117782628Y-64612072D01*
X117782623Y-64612066D01*
X117587933Y-64417376D01*
X117587926Y-64417370D01*
X117369483Y-64249754D01*
X117369482Y-64249753D01*
X117369479Y-64249751D01*
X117274407Y-64194861D01*
X117131028Y-64112080D01*
X117131017Y-64112075D01*
X116876630Y-64006704D01*
X116734470Y-63968613D01*
X116610666Y-63935440D01*
X116610660Y-63935439D01*
X116610655Y-63935438D01*
X116337684Y-63899501D01*
X116337679Y-63899500D01*
X116337674Y-63899500D01*
X116062326Y-63899500D01*
X116062320Y-63899500D01*
X116062315Y-63899501D01*
X115789344Y-63935438D01*
X115789337Y-63935439D01*
X115789334Y-63935440D01*
X115733125Y-63950500D01*
X115523369Y-64006704D01*
X115268982Y-64112075D01*
X115268971Y-64112080D01*
X115030516Y-64249754D01*
X114812073Y-64417370D01*
X114812066Y-64417376D01*
X114617376Y-64612066D01*
X114617370Y-64612073D01*
X114449754Y-64830516D01*
X114312080Y-65068971D01*
X114312075Y-65068982D01*
X114206704Y-65323369D01*
X114135441Y-65589331D01*
X114135438Y-65589344D01*
X114099501Y-65862315D01*
X114099500Y-65862332D01*
X108041232Y-65862332D01*
X107832719Y-65829307D01*
X107588089Y-65829307D01*
X107346484Y-65867573D01*
X107113829Y-65943168D01*
X106980195Y-66011258D01*
X106911526Y-66024154D01*
X106846785Y-65997877D01*
X106806529Y-65940770D01*
X106803537Y-65870965D01*
X106838760Y-65810623D01*
X106848402Y-65802407D01*
X106918057Y-65748960D01*
X107091957Y-65575060D01*
X107241671Y-65379948D01*
X107364637Y-65166965D01*
X107458751Y-64939753D01*
X107522403Y-64702201D01*
X107554504Y-64458373D01*
X107554504Y-64212441D01*
X107522403Y-63968613D01*
X107458751Y-63731061D01*
X107364637Y-63503849D01*
X107241671Y-63290866D01*
X107091957Y-63095754D01*
X107091952Y-63095748D01*
X106918062Y-62921858D01*
X106918055Y-62921852D01*
X106722952Y-62772145D01*
X106722950Y-62772143D01*
X106722945Y-62772140D01*
X106509962Y-62649174D01*
X106509958Y-62649172D01*
X106282754Y-62555061D01*
X106045195Y-62491407D01*
X105801377Y-62459307D01*
X105801370Y-62459307D01*
X105555438Y-62459307D01*
X105555430Y-62459307D01*
X105311612Y-62491407D01*
X105074053Y-62555061D01*
X104846849Y-62649172D01*
X104846845Y-62649174D01*
X104718556Y-62723242D01*
X104633863Y-62772140D01*
X104633860Y-62772141D01*
X104633855Y-62772145D01*
X104438752Y-62921852D01*
X104438745Y-62921858D01*
X104264855Y-63095748D01*
X104264849Y-63095755D01*
X104115142Y-63290858D01*
X103992171Y-63503848D01*
X103992169Y-63503852D01*
X103898058Y-63731056D01*
X103834404Y-63968615D01*
X103802304Y-64212433D01*
X96124503Y-64212433D01*
X96092403Y-63968613D01*
X96028751Y-63731061D01*
X95934637Y-63503849D01*
X95811671Y-63290866D01*
X95661957Y-63095754D01*
X95661952Y-63095748D01*
X95488062Y-62921858D01*
X95488055Y-62921852D01*
X95292952Y-62772145D01*
X95292950Y-62772143D01*
X95292945Y-62772140D01*
X95079962Y-62649174D01*
X95079958Y-62649172D01*
X94852754Y-62555061D01*
X94615195Y-62491407D01*
X94371377Y-62459307D01*
X94371370Y-62459307D01*
X94125438Y-62459307D01*
X94125430Y-62459307D01*
X93881612Y-62491407D01*
X93644053Y-62555061D01*
X93416849Y-62649172D01*
X93416845Y-62649174D01*
X93288556Y-62723242D01*
X93203863Y-62772140D01*
X93203860Y-62772141D01*
X93203855Y-62772145D01*
X93008752Y-62921852D01*
X93008745Y-62921858D01*
X92834855Y-63095748D01*
X92834849Y-63095755D01*
X92685142Y-63290858D01*
X92562171Y-63503848D01*
X92562169Y-63503852D01*
X92468058Y-63731056D01*
X92404404Y-63968615D01*
X92372304Y-64212433D01*
X92372304Y-64458380D01*
X92404404Y-64702198D01*
X92468058Y-64939757D01*
X92521584Y-65068979D01*
X92562171Y-65166965D01*
X92685137Y-65379948D01*
X92685140Y-65379953D01*
X92685142Y-65379955D01*
X92834849Y-65575058D01*
X92834855Y-65575065D01*
X93008745Y-65748955D01*
X93008750Y-65748959D01*
X93008751Y-65748960D01*
X93078390Y-65802396D01*
X93078392Y-65802397D01*
X93119595Y-65858824D01*
X93123750Y-65928570D01*
X93089538Y-65989491D01*
X93027821Y-66022244D01*
X92958194Y-66016431D01*
X92946612Y-66011258D01*
X92812978Y-65943168D01*
X92580323Y-65867573D01*
X92338719Y-65829307D01*
X92094089Y-65829307D01*
X91852484Y-65867573D01*
X91619832Y-65943168D01*
X91401873Y-66054223D01*
X91308566Y-66122014D01*
X91308565Y-66122016D01*
X91854033Y-66667484D01*
X91837415Y-66674368D01*
X91706370Y-66761929D01*
X91594926Y-66873373D01*
X91507365Y-67004418D01*
X91500481Y-67021036D01*
X90955013Y-66475568D01*
X90955011Y-66475569D01*
X90887220Y-66568876D01*
X90776165Y-66786835D01*
X90700570Y-67019487D01*
X90662304Y-67261091D01*
X85900500Y-67261091D01*
X85900500Y-65934108D01*
X85900500Y-65862326D01*
X85864560Y-65589334D01*
X85793295Y-65323368D01*
X85687923Y-65068979D01*
X85687921Y-65068976D01*
X85687919Y-65068971D01*
X85638732Y-64983778D01*
X85550249Y-64830521D01*
X85382628Y-64612072D01*
X85382623Y-64612066D01*
X85187933Y-64417376D01*
X85187926Y-64417370D01*
X84969483Y-64249754D01*
X84969482Y-64249753D01*
X84969479Y-64249751D01*
X84874407Y-64194861D01*
X84731028Y-64112080D01*
X84731017Y-64112075D01*
X84476630Y-64006704D01*
X84334470Y-63968613D01*
X84210666Y-63935440D01*
X84210660Y-63935439D01*
X84210655Y-63935438D01*
X83937684Y-63899501D01*
X83937679Y-63899500D01*
X83937674Y-63899500D01*
X83662326Y-63899500D01*
X83662320Y-63899500D01*
X83662315Y-63899501D01*
X83389344Y-63935438D01*
X83389337Y-63935439D01*
X83389334Y-63935440D01*
X83333125Y-63950500D01*
X83123369Y-64006704D01*
X82868982Y-64112075D01*
X82868971Y-64112080D01*
X82630516Y-64249754D01*
X82412073Y-64417370D01*
X82412066Y-64417376D01*
X82217376Y-64612066D01*
X82217370Y-64612073D01*
X82049754Y-64830516D01*
X81912080Y-65068971D01*
X81912075Y-65068982D01*
X81806704Y-65323369D01*
X81735441Y-65589331D01*
X81735438Y-65589344D01*
X81699501Y-65862315D01*
X81699500Y-65862332D01*
X79300500Y-65862332D01*
X79300500Y-58002706D01*
X79300618Y-57997297D01*
X79304266Y-57913734D01*
X79306510Y-57862332D01*
X81699500Y-57862332D01*
X81699500Y-58137667D01*
X81699501Y-58137684D01*
X81735438Y-58410655D01*
X81735439Y-58410660D01*
X81735440Y-58410666D01*
X81735441Y-58410668D01*
X81806704Y-58676630D01*
X81912075Y-58931017D01*
X81912080Y-58931028D01*
X81991809Y-59069121D01*
X82049751Y-59169479D01*
X82049753Y-59169482D01*
X82049754Y-59169483D01*
X82217370Y-59387926D01*
X82217376Y-59387933D01*
X82412066Y-59582623D01*
X82412072Y-59582628D01*
X82630521Y-59750249D01*
X82783778Y-59838732D01*
X82868971Y-59887919D01*
X82868976Y-59887921D01*
X82868979Y-59887923D01*
X83123368Y-59993295D01*
X83389334Y-60064560D01*
X83662326Y-60100500D01*
X83662333Y-60100500D01*
X83937667Y-60100500D01*
X83937674Y-60100500D01*
X84210666Y-60064560D01*
X84476632Y-59993295D01*
X84731021Y-59887923D01*
X84969479Y-59750249D01*
X85187928Y-59582628D01*
X85382628Y-59387928D01*
X85550249Y-59169479D01*
X85687923Y-58931021D01*
X85793295Y-58676632D01*
X85864560Y-58410666D01*
X85900500Y-58137674D01*
X85900500Y-57862332D01*
X114099500Y-57862332D01*
X114099500Y-58137667D01*
X114099501Y-58137684D01*
X114135438Y-58410655D01*
X114135439Y-58410660D01*
X114135440Y-58410666D01*
X114135441Y-58410668D01*
X114206704Y-58676630D01*
X114312075Y-58931017D01*
X114312080Y-58931028D01*
X114391809Y-59069121D01*
X114449751Y-59169479D01*
X114449753Y-59169482D01*
X114449754Y-59169483D01*
X114617370Y-59387926D01*
X114617376Y-59387933D01*
X114812066Y-59582623D01*
X114812072Y-59582628D01*
X115030521Y-59750249D01*
X115183778Y-59838732D01*
X115268971Y-59887919D01*
X115268976Y-59887921D01*
X115268979Y-59887923D01*
X115523368Y-59993295D01*
X115789334Y-60064560D01*
X116062326Y-60100500D01*
X116062333Y-60100500D01*
X116337667Y-60100500D01*
X116337674Y-60100500D01*
X116610666Y-60064560D01*
X116876632Y-59993295D01*
X117131021Y-59887923D01*
X117369479Y-59750249D01*
X117587928Y-59582628D01*
X117782628Y-59387928D01*
X117950249Y-59169479D01*
X118087923Y-58931021D01*
X118193295Y-58676632D01*
X118264560Y-58410666D01*
X118300500Y-58137674D01*
X118300500Y-57862326D01*
X118264560Y-57589334D01*
X118193295Y-57323368D01*
X118087923Y-57068979D01*
X118087921Y-57068976D01*
X118087919Y-57068971D01*
X118038732Y-56983778D01*
X117950249Y-56830521D01*
X117782628Y-56612072D01*
X117782623Y-56612066D01*
X117587933Y-56417376D01*
X117587926Y-56417370D01*
X117369483Y-56249754D01*
X117369482Y-56249753D01*
X117369479Y-56249751D01*
X117274407Y-56194861D01*
X117131028Y-56112080D01*
X117131017Y-56112075D01*
X116876630Y-56006704D01*
X116743649Y-55971072D01*
X116610666Y-55935440D01*
X116610660Y-55935439D01*
X116610655Y-55935438D01*
X116337684Y-55899501D01*
X116337679Y-55899500D01*
X116337674Y-55899500D01*
X116062326Y-55899500D01*
X116062320Y-55899500D01*
X116062315Y-55899501D01*
X115789344Y-55935438D01*
X115789337Y-55935439D01*
X115789334Y-55935440D01*
X115733125Y-55950500D01*
X115523369Y-56006704D01*
X115268982Y-56112075D01*
X115268971Y-56112080D01*
X115030516Y-56249754D01*
X114812073Y-56417370D01*
X114812066Y-56417376D01*
X114617376Y-56612066D01*
X114617370Y-56612073D01*
X114449754Y-56830516D01*
X114312080Y-57068971D01*
X114312075Y-57068982D01*
X114206704Y-57323369D01*
X114135441Y-57589331D01*
X114135438Y-57589344D01*
X114099501Y-57862315D01*
X114099500Y-57862332D01*
X85900500Y-57862332D01*
X85900500Y-57862326D01*
X85864560Y-57589334D01*
X85793295Y-57323368D01*
X85687923Y-57068979D01*
X85687921Y-57068976D01*
X85687919Y-57068971D01*
X85638732Y-56983778D01*
X85550249Y-56830521D01*
X85382628Y-56612072D01*
X85382623Y-56612066D01*
X85187933Y-56417376D01*
X85187926Y-56417370D01*
X84969483Y-56249754D01*
X84969482Y-56249753D01*
X84969479Y-56249751D01*
X84874407Y-56194861D01*
X84731028Y-56112080D01*
X84731017Y-56112075D01*
X84476630Y-56006704D01*
X84343649Y-55971072D01*
X84210666Y-55935440D01*
X84210660Y-55935439D01*
X84210655Y-55935438D01*
X83937684Y-55899501D01*
X83937679Y-55899500D01*
X83937674Y-55899500D01*
X83662326Y-55899500D01*
X83662320Y-55899500D01*
X83662315Y-55899501D01*
X83389344Y-55935438D01*
X83389337Y-55935439D01*
X83389334Y-55935440D01*
X83333125Y-55950500D01*
X83123369Y-56006704D01*
X82868982Y-56112075D01*
X82868971Y-56112080D01*
X82630516Y-56249754D01*
X82412073Y-56417370D01*
X82412066Y-56417376D01*
X82217376Y-56612066D01*
X82217370Y-56612073D01*
X82049754Y-56830516D01*
X81912080Y-57068971D01*
X81912075Y-57068982D01*
X81806704Y-57323369D01*
X81735441Y-57589331D01*
X81735438Y-57589344D01*
X81699501Y-57862315D01*
X81699500Y-57862332D01*
X79306510Y-57862332D01*
X79317386Y-57613226D01*
X79318326Y-57602495D01*
X79368152Y-57224025D01*
X79370025Y-57213405D01*
X79452649Y-56840709D01*
X79455440Y-56830295D01*
X79570230Y-56466227D01*
X79573917Y-56456095D01*
X79720003Y-56103412D01*
X79724561Y-56093638D01*
X79900822Y-55755045D01*
X79906217Y-55745700D01*
X80111325Y-55423744D01*
X80117515Y-55414905D01*
X80349896Y-55112060D01*
X80356834Y-55103791D01*
X80614726Y-54822352D01*
X80622352Y-54814726D01*
X80903791Y-54556834D01*
X80912060Y-54549896D01*
X81214905Y-54317515D01*
X81223744Y-54311325D01*
X81545700Y-54106217D01*
X81555045Y-54100822D01*
X81893638Y-53924561D01*
X81903412Y-53920003D01*
X82256095Y-53773917D01*
X82266227Y-53770230D01*
X82630295Y-53655440D01*
X82640709Y-53652649D01*
X83013405Y-53570025D01*
X83024025Y-53568152D01*
X83402495Y-53518326D01*
X83413226Y-53517386D01*
X83797297Y-53500617D01*
X83802706Y-53500500D01*
X83865892Y-53500500D01*
X116134108Y-53500500D01*
X116197294Y-53500500D01*
X116202702Y-53500617D01*
G37*
G04 #@! TD.AperFunction*
G04 #@! TD*
M02*
