G04 #@! TF.GenerationSoftware,KiCad,Pcbnew,9.0.7*
G04 #@! TF.CreationDate,2026-02-20T12:41:18-05:00*
G04 #@! TF.ProjectId,Monitorio,4d6f6e69-746f-4726-996f-2e6b69636164,rev?*
G04 #@! TF.SameCoordinates,Original*
G04 #@! TF.FileFunction,Soldermask,Top*
G04 #@! TF.FilePolarity,Negative*
%FSLAX46Y46*%
G04 Gerber Fmt 4.6, Leading zero omitted, Abs format (unit mm)*
G04 Created by KiCad (PCBNEW 9.0.7) date 2026-02-20 12:41:18*
%MOMM*%
%LPD*%
G01*
G04 APERTURE LIST*
G04 Aperture macros list*
%AMRoundRect*
0 Rectangle with rounded corners*
0 $1 Rounding radius*
0 $2 $3 $4 $5 $6 $7 $8 $9 X,Y pos of 4 corners*
0 Add a 4 corners polygon primitive as box body*
4,1,4,$2,$3,$4,$5,$6,$7,$8,$9,$2,$3,0*
0 Add four circle primitives for the rounded corners*
1,1,$1+$1,$2,$3*
1,1,$1+$1,$4,$5*
1,1,$1+$1,$6,$7*
1,1,$1+$1,$8,$9*
0 Add four rect primitives between the rounded corners*
20,1,$1+$1,$2,$3,$4,$5,0*
20,1,$1+$1,$4,$5,$6,$7,0*
20,1,$1+$1,$6,$7,$8,$9,0*
20,1,$1+$1,$8,$9,$2,$3,0*%
G04 Aperture macros list end*
%ADD10C,2.108200*%
%ADD11C,1.397000*%
%ADD12C,3.251200*%
%ADD13RoundRect,0.200000X0.275000X-0.200000X0.275000X0.200000X-0.275000X0.200000X-0.275000X-0.200000X0*%
%ADD14RoundRect,0.225000X0.250000X-0.225000X0.250000X0.225000X-0.250000X0.225000X-0.250000X-0.225000X0*%
%ADD15R,1.450000X0.450000*%
%ADD16RoundRect,0.200000X-0.275000X0.200000X-0.275000X-0.200000X0.275000X-0.200000X0.275000X0.200000X0*%
G04 APERTURE END LIST*
D10*
G04 #@! TO.C,J2*
X107710404Y-67383407D03*
X92216404Y-67383407D03*
D11*
X95518404Y-73225407D03*
X96788404Y-70685407D03*
X98058404Y-73225407D03*
X99328404Y-70685407D03*
X100598404Y-73225407D03*
X101868404Y-70685407D03*
X103138404Y-73225407D03*
X104408404Y-70685407D03*
D12*
X94248404Y-64335407D03*
X105678404Y-64335407D03*
G04 #@! TD*
D13*
G04 #@! TO.C,R8*
X96000000Y-79875000D03*
X96000000Y-81525000D03*
G04 #@! TD*
D14*
G04 #@! TO.C,C3*
X103500000Y-91975000D03*
X103500000Y-93525000D03*
G04 #@! TD*
D15*
G04 #@! TO.C,U1*
X102750000Y-83600000D03*
X102750000Y-84250000D03*
X102750000Y-84900000D03*
X102750000Y-85550000D03*
X102750000Y-86200000D03*
X102750000Y-86850000D03*
X102750000Y-87500000D03*
X96850000Y-87500000D03*
X96850000Y-86850000D03*
X96850000Y-86200000D03*
X96850000Y-85550000D03*
X96850000Y-84900000D03*
X96850000Y-84250000D03*
X96850000Y-83600000D03*
G04 #@! TD*
D13*
G04 #@! TO.C,R5*
X101750000Y-79850000D03*
X101750000Y-81500000D03*
G04 #@! TD*
D14*
G04 #@! TO.C,C1*
X83500000Y-91975000D03*
X83500000Y-93525000D03*
G04 #@! TD*
D13*
G04 #@! TO.C,R7*
X94200000Y-79875000D03*
X94200000Y-81525000D03*
G04 #@! TD*
D16*
G04 #@! TO.C,R4*
X115750000Y-93575000D03*
X115750000Y-91925000D03*
G04 #@! TD*
D14*
G04 #@! TO.C,C4*
X114000000Y-91950000D03*
X114000000Y-93500000D03*
G04 #@! TD*
G04 #@! TO.C,C5*
X97750000Y-79900000D03*
X97750000Y-81450000D03*
G04 #@! TD*
G04 #@! TO.C,C2*
X93000000Y-91975000D03*
X93000000Y-93525000D03*
G04 #@! TD*
D16*
G04 #@! TO.C,R3*
X105250000Y-93575000D03*
X105250000Y-91925000D03*
G04 #@! TD*
G04 #@! TO.C,R2*
X94750000Y-93575000D03*
X94750000Y-91925000D03*
G04 #@! TD*
D13*
G04 #@! TO.C,R10*
X105200000Y-79875000D03*
X105200000Y-81525000D03*
G04 #@! TD*
G04 #@! TO.C,R9*
X103500000Y-79875000D03*
X103500000Y-81525000D03*
G04 #@! TD*
D16*
G04 #@! TO.C,R6*
X99750000Y-81500000D03*
X99750000Y-79850000D03*
G04 #@! TD*
G04 #@! TO.C,R1*
X85250000Y-93575000D03*
X85250000Y-91925000D03*
G04 #@! TD*
M02*
