G04 #@! TF.GenerationSoftware,KiCad,Pcbnew,9.0.7*
G04 #@! TF.CreationDate,2026-02-20T12:41:18-05:00*
G04 #@! TF.ProjectId,Monitorio,4d6f6e69-746f-4726-996f-2e6b69636164,rev?*
G04 #@! TF.SameCoordinates,Original*
G04 #@! TF.FileFunction,Profile,NP*
%FSLAX46Y46*%
G04 Gerber Fmt 4.6, Leading zero omitted, Abs format (unit mm)*
G04 Created by KiCad (PCBNEW 9.0.7) date 2026-02-20 12:41:18*
%MOMM*%
%LPD*%
G01*
G04 APERTURE LIST*
G04 #@! TA.AperFunction,Profile*
%ADD10C,0.050000*%
G04 #@! TD*
G04 APERTURE END LIST*
D10*
X78800000Y-58000000D02*
G75*
G02*
X83800000Y-53000000I5000000J0D01*
G01*
X116200000Y-53000000D02*
G75*
G02*
X121200000Y-58000000I0J-5000000D01*
G01*
X85400000Y-83000000D02*
X85400000Y-66000000D01*
X117800000Y-83000000D02*
G75*
G02*
X114600000Y-83000000I-1600000J0D01*
G01*
X85400000Y-83000000D02*
G75*
G02*
X82200000Y-83000000I-1600000J0D01*
G01*
X82200000Y-66000000D02*
X82200000Y-83000000D01*
X82200000Y-66000000D02*
G75*
G02*
X85400000Y-66000000I1600000J0D01*
G01*
X117800000Y-83000000D02*
X117800000Y-66000000D01*
X114600000Y-66000000D02*
G75*
G02*
X117800000Y-66000000I1600000J0D01*
G01*
X85400000Y-58000000D02*
G75*
G02*
X82200000Y-58000000I-1600000J0D01*
G01*
X82200000Y-58000000D02*
G75*
G02*
X85400000Y-58000000I1600000J0D01*
G01*
X117800000Y-58000000D02*
G75*
G02*
X114600000Y-58000000I-1600000J0D01*
G01*
X114600000Y-58000000D02*
G75*
G02*
X117800000Y-58000000I1600000J0D01*
G01*
X114600000Y-83000000D02*
X114600000Y-66000000D01*
X78800000Y-105500000D02*
X78800000Y-89000000D01*
X83800000Y-53000000D02*
X116200000Y-53000000D01*
X78800000Y-89000000D02*
X78800000Y-58000000D01*
X121200000Y-105500000D02*
X78800000Y-105500000D01*
X121200000Y-89000000D02*
X121200000Y-105500000D01*
X121200000Y-58000000D02*
X121200000Y-89000000D01*
M02*
