M48
; DRILL file {KiCad 9.0.7} date 2026-02-20T12:42:00-0500
; FORMAT={-:-/ absolute / metric / decimal}
; #@! TF.CreationDate,2026-02-20T12:42:00-05:00
; #@! TF.GenerationSoftware,Kicad,Pcbnew,9.0.7
; #@! TF.FileFunction,MixedPlating,1,2
FMAT,2
METRIC
; #@! TA.AperFunction,Plated,PTH,ViaDrill
T1C0.300
; #@! TA.AperFunction,Plated,PTH,ComponentDrill
T2C0.889
; #@! TA.AperFunction,Plated,PTH,ComponentDrill
T3C1.600
; #@! TA.AperFunction,NonPlated,NPTH,ComponentDrill
T4C3.251
%
G90
G05
T1
X79.7Y-71.2
X79.75Y-81.6
X79.75Y-104.45
X80.091Y-94.389
X80.2Y-89.4
X81.0Y-55.15
X83.8Y-62.0
X84.246Y-94.5
X85.3Y-85.25
X86.2Y-90.2
X86.65Y-71.2
X86.65Y-81.7
X89.1Y-94.2
X89.5Y-97.6
X89.526Y-104.047
X89.95Y-86.45
X91.0Y-82.15
X91.35Y-53.9
X91.61Y-60.7
X91.708Y-75.384
X92.2Y-94.35
X92.7Y-79.6
X92.9Y-90.5
X93.05Y-83.4
X94.9Y-71.1
X95.1Y-84.9
X96.6Y-94.5
X96.65Y-64.15
X96.75Y-89.3
X97.9Y-88.8
X97.95Y-77.15
X98.7Y-80.5
X99.8Y-82.925
X99.865Y-53.9
X100.0Y-97.65
X100.1Y-60.2
X100.126Y-104.047
X100.8Y-86.5
X100.9Y-67.45
X101.096Y-90.93
X101.4Y-94.5
X101.9Y-75.85
X103.25Y-64.2
X103.25Y-89.5
X104.05Y-85.6
X105.3Y-94.85
X106.2Y-72.15
X106.255Y-83.226
X106.65Y-84.6
X106.75Y-79.65
X106.75Y-93.8
X107.35Y-80.8
X108.12Y-60.7
X108.4Y-53.9
X109.7Y-82.85
X110.5Y-97.8
X110.526Y-104.147
X112.9Y-90.5
X113.3Y-71.6
X113.4Y-80.05
X114.45Y-85.35
X115.75Y-94.85
X116.1Y-61.9
X118.8Y-55.0
X118.9Y-71.6
X119.8Y-89.3
X119.866Y-95.142
X120.2Y-82.8
X120.25Y-104.5
T2
X95.518Y-73.225
X96.788Y-70.685
X98.058Y-73.225
X99.328Y-70.685
X100.598Y-73.225
X101.868Y-70.685
X103.138Y-73.225
X104.408Y-70.685
T3
X92.216Y-67.383
X107.71Y-67.383
T4
X94.248Y-64.335
X105.678Y-64.335
M30
